<?xml version="1.0" encoding="UTF-8" standalone="no"?>
<!-- Created with Inkscape (http://www.inkscape.org/) -->

<svg
   xmlns:dc="http://purl.org/dc/elements/1.1/"
   xmlns:cc="http://creativecommons.org/ns#"
   xmlns:rdf="http://www.w3.org/1999/02/22-rdf-syntax-ns#"
   xmlns:svg="http://www.w3.org/2000/svg"
   xmlns="http://www.w3.org/2000/svg"
   xmlns:sodipodi="http://sodipodi.sourceforge.net/DTD/sodipodi-0.dtd"
   xmlns:inkscape="http://www.inkscape.org/namespaces/inkscape"
   width="556.24377mm"
   height="409.47961mm"
   viewBox="0 0 556.24377 409.47961"
   version="1.1"
   id="svg8"
   inkscape:version="0.92.2 (5c3e80d, 2017-08-06)"
   sodipodi:docname="logo.svg"
   inkscape:export-filename="/home/mike/Desktop/School/Cloud/Classes/CPSC 473 - Web FrontEnd Engineering (Mon)/homework/assignments/Project 2 - Celebrity Taco/program/celebrity-taco/public/assets/images/home-logo.png"
   inkscape:export-xdpi="25.4"
   inkscape:export-ydpi="25.4">
  <defs
     id="defs2">
    <marker
       inkscape:stockid="Arrow1Lstart"
       orient="auto"
       refY="0"
       refX="0"
       id="marker9758"
       style="overflow:visible"
       inkscape:isstock="true">
      <path
         id="path9756"
         d="M 0,0 5,-5 -12.5,0 5,5 Z"
         style="fill:#d0359d;fill-opacity:1;fill-rule:evenodd;stroke:#020100;stroke-width:1.00000003pt;stroke-opacity:1"
         transform="matrix(0.8,0,0,0.8,10,0)"
         inkscape:connector-curvature="0" />
    </marker>
    <marker
       inkscape:stockid="Arrow1Lstart"
       orient="auto"
       refY="0"
       refX="0"
       id="marker9502"
       style="overflow:visible"
       inkscape:isstock="true">
      <path
         id="path9500"
         d="M 0,0 5,-5 -12.5,0 5,5 Z"
         style="fill:#d0359d;fill-opacity:1;fill-rule:evenodd;stroke:#020100;stroke-width:1.00000003pt;stroke-opacity:1"
         transform="matrix(0.8,0,0,0.8,10,0)"
         inkscape:connector-curvature="0" />
    </marker>
    <marker
       inkscape:stockid="Arrow1Lstart"
       orient="auto"
       refY="0"
       refX="0"
       id="marker9252"
       style="overflow:visible"
       inkscape:isstock="true">
      <path
         id="path9250"
         d="M 0,0 5,-5 -12.5,0 5,5 Z"
         style="fill:#d0359d;fill-opacity:1;fill-rule:evenodd;stroke:#020100;stroke-width:1.00000003pt;stroke-opacity:1"
         transform="matrix(0.8,0,0,0.8,10,0)"
         inkscape:connector-curvature="0" />
    </marker>
    <marker
       inkscape:stockid="Arrow1Lstart"
       orient="auto"
       refY="0"
       refX="0"
       id="marker9008"
       style="overflow:visible"
       inkscape:isstock="true">
      <path
         id="path9006"
         d="M 0,0 5,-5 -12.5,0 5,5 Z"
         style="fill:#d0359d;fill-opacity:1;fill-rule:evenodd;stroke:#020100;stroke-width:1.00000003pt;stroke-opacity:1"
         transform="matrix(0.8,0,0,0.8,10,0)"
         inkscape:connector-curvature="0" />
    </marker>
    <marker
       inkscape:stockid="Arrow1Lstart"
       orient="auto"
       refY="0"
       refX="0"
       id="marker8770"
       style="overflow:visible"
       inkscape:isstock="true">
      <path
         id="path8768"
         d="M 0,0 5,-5 -12.5,0 5,5 Z"
         style="fill:#d0359d;fill-opacity:1;fill-rule:evenodd;stroke:#020100;stroke-width:1.00000003pt;stroke-opacity:1"
         transform="matrix(0.8,0,0,0.8,10,0)"
         inkscape:connector-curvature="0" />
    </marker>
    <marker
       inkscape:stockid="Arrow1Lstart"
       orient="auto"
       refY="0"
       refX="0"
       id="marker8538"
       style="overflow:visible"
       inkscape:isstock="true">
      <path
         id="path8536"
         d="M 0,0 5,-5 -12.5,0 5,5 Z"
         style="fill:#d0359d;fill-opacity:1;fill-rule:evenodd;stroke:#020100;stroke-width:1.00000003pt;stroke-opacity:1"
         transform="matrix(0.8,0,0,0.8,10,0)"
         inkscape:connector-curvature="0" />
    </marker>
    <marker
       inkscape:stockid="Arrow1Lstart"
       orient="auto"
       refY="0"
       refX="0"
       id="marker8312"
       style="overflow:visible"
       inkscape:isstock="true">
      <path
         id="path8310"
         d="M 0,0 5,-5 -12.5,0 5,5 Z"
         style="fill:#d0359d;fill-opacity:1;fill-rule:evenodd;stroke:#020100;stroke-width:1.00000003pt;stroke-opacity:1"
         transform="matrix(0.8,0,0,0.8,10,0)"
         inkscape:connector-curvature="0" />
    </marker>
    <marker
       inkscape:stockid="Arrow1Lstart"
       orient="auto"
       refY="0"
       refX="0"
       id="marker8092"
       style="overflow:visible"
       inkscape:isstock="true">
      <path
         id="path8090"
         d="M 0,0 5,-5 -12.5,0 5,5 Z"
         style="fill:#d0359d;fill-opacity:1;fill-rule:evenodd;stroke:#020100;stroke-width:1.00000003pt;stroke-opacity:1"
         transform="matrix(0.8,0,0,0.8,10,0)"
         inkscape:connector-curvature="0" />
    </marker>
    <marker
       inkscape:stockid="Arrow1Lstart"
       orient="auto"
       refY="0"
       refX="0"
       id="marker7878"
       style="overflow:visible"
       inkscape:isstock="true">
      <path
         id="path7876"
         d="M 0,0 5,-5 -12.5,0 5,5 Z"
         style="fill:#d0359d;fill-opacity:1;fill-rule:evenodd;stroke:#020100;stroke-width:1.00000003pt;stroke-opacity:1"
         transform="matrix(0.8,0,0,0.8,10,0)"
         inkscape:connector-curvature="0" />
    </marker>
    <marker
       inkscape:stockid="Arrow1Lstart"
       orient="auto"
       refY="0"
       refX="0"
       id="marker7670"
       style="overflow:visible"
       inkscape:isstock="true">
      <path
         id="path7668"
         d="M 0,0 5,-5 -12.5,0 5,5 Z"
         style="fill:#d0359d;fill-opacity:1;fill-rule:evenodd;stroke:#020100;stroke-width:1.00000003pt;stroke-opacity:1"
         transform="matrix(0.8,0,0,0.8,10,0)"
         inkscape:connector-curvature="0" />
    </marker>
    <marker
       inkscape:stockid="Arrow1Lstart"
       orient="auto"
       refY="0"
       refX="0"
       id="marker7468"
       style="overflow:visible"
       inkscape:isstock="true">
      <path
         id="path7466"
         d="M 0,0 5,-5 -12.5,0 5,5 Z"
         style="fill:#d0359d;fill-opacity:1;fill-rule:evenodd;stroke:#020100;stroke-width:1.00000003pt;stroke-opacity:1"
         transform="matrix(0.8,0,0,0.8,10,0)"
         inkscape:connector-curvature="0" />
    </marker>
    <marker
       inkscape:stockid="Arrow1Lstart"
       orient="auto"
       refY="0"
       refX="0"
       id="marker7272"
       style="overflow:visible"
       inkscape:isstock="true">
      <path
         id="path7270"
         d="M 0,0 5,-5 -12.5,0 5,5 Z"
         style="fill:#d0359d;fill-opacity:1;fill-rule:evenodd;stroke:#020100;stroke-width:1.00000003pt;stroke-opacity:1"
         transform="matrix(0.8,0,0,0.8,10,0)"
         inkscape:connector-curvature="0" />
    </marker>
    <marker
       inkscape:stockid="Arrow1Lstart"
       orient="auto"
       refY="0"
       refX="0"
       id="marker7082"
       style="overflow:visible"
       inkscape:isstock="true">
      <path
         id="path7080"
         d="M 0,0 5,-5 -12.5,0 5,5 Z"
         style="fill:#d0359d;fill-opacity:1;fill-rule:evenodd;stroke:#020100;stroke-width:1.00000003pt;stroke-opacity:1"
         transform="matrix(0.8,0,0,0.8,10,0)"
         inkscape:connector-curvature="0" />
    </marker>
    <marker
       inkscape:stockid="Arrow1Lstart"
       orient="auto"
       refY="0"
       refX="0"
       id="marker6898"
       style="overflow:visible"
       inkscape:isstock="true">
      <path
         id="path6896"
         d="M 0,0 5,-5 -12.5,0 5,5 Z"
         style="fill:#d0359d;fill-opacity:1;fill-rule:evenodd;stroke:#020100;stroke-width:1.00000003pt;stroke-opacity:1"
         transform="matrix(0.8,0,0,0.8,10,0)"
         inkscape:connector-curvature="0" />
    </marker>
    <marker
       inkscape:stockid="Arrow1Lstart"
       orient="auto"
       refY="0"
       refX="0"
       id="marker6720"
       style="overflow:visible"
       inkscape:isstock="true">
      <path
         id="path6718"
         d="M 0,0 5,-5 -12.5,0 5,5 Z"
         style="fill:#d0359d;fill-opacity:1;fill-rule:evenodd;stroke:#020100;stroke-width:1.00000003pt;stroke-opacity:1"
         transform="matrix(0.8,0,0,0.8,10,0)"
         inkscape:connector-curvature="0" />
    </marker>
    <marker
       inkscape:stockid="Arrow1Lstart"
       orient="auto"
       refY="0"
       refX="0"
       id="marker6548"
       style="overflow:visible"
       inkscape:isstock="true">
      <path
         id="path6546"
         d="M 0,0 5,-5 -12.5,0 5,5 Z"
         style="fill:#d0359d;fill-opacity:1;fill-rule:evenodd;stroke:#020100;stroke-width:1.00000003pt;stroke-opacity:1"
         transform="matrix(0.8,0,0,0.8,10,0)"
         inkscape:connector-curvature="0" />
    </marker>
    <marker
       inkscape:stockid="Arrow1Lstart"
       orient="auto"
       refY="0"
       refX="0"
       id="marker6382"
       style="overflow:visible"
       inkscape:isstock="true">
      <path
         id="path6380"
         d="M 0,0 5,-5 -12.5,0 5,5 Z"
         style="fill:#d0359d;fill-opacity:1;fill-rule:evenodd;stroke:#020100;stroke-width:1.00000003pt;stroke-opacity:1"
         transform="matrix(0.8,0,0,0.8,10,0)"
         inkscape:connector-curvature="0" />
    </marker>
    <marker
       inkscape:stockid="Arrow1Lstart"
       orient="auto"
       refY="0"
       refX="0"
       id="marker6222"
       style="overflow:visible"
       inkscape:isstock="true">
      <path
         id="path6220"
         d="M 0,0 5,-5 -12.5,0 5,5 Z"
         style="fill:#d0359d;fill-opacity:1;fill-rule:evenodd;stroke:#020100;stroke-width:1.00000003pt;stroke-opacity:1"
         transform="matrix(0.8,0,0,0.8,10,0)"
         inkscape:connector-curvature="0" />
    </marker>
    <marker
       inkscape:stockid="Arrow1Lstart"
       orient="auto"
       refY="0"
       refX="0"
       id="marker6068"
       style="overflow:visible"
       inkscape:isstock="true">
      <path
         id="path6066"
         d="M 0,0 5,-5 -12.5,0 5,5 Z"
         style="fill:#d0359d;fill-opacity:1;fill-rule:evenodd;stroke:#020100;stroke-width:1.00000003pt;stroke-opacity:1"
         transform="matrix(0.8,0,0,0.8,10,0)"
         inkscape:connector-curvature="0" />
    </marker>
    <marker
       inkscape:stockid="Arrow1Lstart"
       orient="auto"
       refY="0"
       refX="0"
       id="marker5920"
       style="overflow:visible"
       inkscape:isstock="true">
      <path
         id="path5918"
         d="M 0,0 5,-5 -12.5,0 5,5 Z"
         style="fill:#d0359d;fill-opacity:1;fill-rule:evenodd;stroke:#020100;stroke-width:1.00000003pt;stroke-opacity:1"
         transform="matrix(0.8,0,0,0.8,10,0)"
         inkscape:connector-curvature="0" />
    </marker>
    <marker
       inkscape:stockid="Arrow1Lstart"
       orient="auto"
       refY="0"
       refX="0"
       id="marker5778"
       style="overflow:visible"
       inkscape:isstock="true">
      <path
         id="path5776"
         d="M 0,0 5,-5 -12.5,0 5,5 Z"
         style="fill:#d0359d;fill-opacity:1;fill-rule:evenodd;stroke:#020100;stroke-width:1.00000003pt;stroke-opacity:1"
         transform="matrix(0.8,0,0,0.8,10,0)"
         inkscape:connector-curvature="0" />
    </marker>
    <marker
       inkscape:isstock="true"
       style="overflow:visible"
       id="marker5492"
       refX="0"
       refY="0"
       orient="auto"
       inkscape:stockid="Arrow1Lstart">
      <path
         transform="matrix(0.8,0,0,0.8,10,0)"
         style="fill:#d0359d;fill-opacity:1;fill-rule:evenodd;stroke:#020100;stroke-width:1.00000003pt;stroke-opacity:1"
         d="M 0,0 5,-5 -12.5,0 5,5 Z"
         id="path5490"
         inkscape:connector-curvature="0" />
    </marker>
    <marker
       inkscape:isstock="true"
       style="overflow:visible"
       id="marker5356"
       refX="0"
       refY="0"
       orient="auto"
       inkscape:stockid="Arrow1Lstart">
      <path
         transform="matrix(0.8,0,0,0.8,10,0)"
         style="fill:#d0359d;fill-opacity:1;fill-rule:evenodd;stroke:#020100;stroke-width:1.00000003pt;stroke-opacity:1"
         d="M 0,0 5,-5 -12.5,0 5,5 Z"
         id="path5354"
         inkscape:connector-curvature="0" />
    </marker>
    <marker
       inkscape:isstock="true"
       style="overflow:visible"
       id="marker5102"
       refX="0"
       refY="0"
       orient="auto"
       inkscape:stockid="Arrow1Lstart">
      <path
         transform="matrix(0.8,0,0,0.8,10,0)"
         style="fill:#d0359d;fill-opacity:1;fill-rule:evenodd;stroke:#020100;stroke-width:1.00000003pt;stroke-opacity:1"
         d="M 0,0 5,-5 -12.5,0 5,5 Z"
         id="path5100"
         inkscape:connector-curvature="0" />
    </marker>
    <marker
       inkscape:isstock="true"
       style="overflow:visible"
       id="marker4984"
       refX="0"
       refY="0"
       orient="auto"
       inkscape:stockid="Arrow1Lstart">
      <path
         transform="matrix(0.8,0,0,0.8,10,0)"
         style="fill:#d0359d;fill-opacity:1;fill-rule:evenodd;stroke:#020100;stroke-width:1.00000003pt;stroke-opacity:1"
         d="M 0,0 5,-5 -12.5,0 5,5 Z"
         id="path4982"
         inkscape:connector-curvature="0" />
    </marker>
    <marker
       inkscape:isstock="true"
       style="overflow:visible"
       id="marker4872"
       refX="0"
       refY="0"
       orient="auto"
       inkscape:stockid="Arrow1Lstart">
      <path
         transform="matrix(0.8,0,0,0.8,10,0)"
         style="fill:#d0359d;fill-opacity:1;fill-rule:evenodd;stroke:#020100;stroke-width:1.00000003pt;stroke-opacity:1"
         d="M 0,0 5,-5 -12.5,0 5,5 Z"
         id="path4870"
         inkscape:connector-curvature="0" />
    </marker>
    <marker
       inkscape:isstock="true"
       style="overflow:visible"
       id="marker4766"
       refX="0"
       refY="0"
       orient="auto"
       inkscape:stockid="Arrow1Lstart">
      <path
         transform="matrix(0.8,0,0,0.8,10,0)"
         style="fill:#d0359d;fill-opacity:1;fill-rule:evenodd;stroke:#020100;stroke-width:1.00000003pt;stroke-opacity:1"
         d="M 0,0 5,-5 -12.5,0 5,5 Z"
         id="path4764"
         inkscape:connector-curvature="0" />
    </marker>
    <marker
       inkscape:isstock="true"
       style="overflow:visible"
       id="marker4666"
       refX="0"
       refY="0"
       orient="auto"
       inkscape:stockid="Arrow1Lstart">
      <path
         transform="matrix(0.8,0,0,0.8,10,0)"
         style="fill:#d0359d;fill-opacity:1;fill-rule:evenodd;stroke:#020100;stroke-width:1.00000003pt;stroke-opacity:1"
         d="M 0,0 5,-5 -12.5,0 5,5 Z"
         id="path4664"
         inkscape:connector-curvature="0" />
    </marker>
    <marker
       inkscape:isstock="true"
       style="overflow:visible"
       id="marker4572"
       refX="0"
       refY="0"
       orient="auto"
       inkscape:stockid="Arrow1Lstart">
      <path
         transform="matrix(0.8,0,0,0.8,10,0)"
         style="fill:#d0359d;fill-opacity:1;fill-rule:evenodd;stroke:#020100;stroke-width:1.00000003pt;stroke-opacity:1"
         d="M 0,0 5,-5 -12.5,0 5,5 Z"
         id="path4570"
         inkscape:connector-curvature="0" />
    </marker>
    <marker
       inkscape:isstock="true"
       style="overflow:visible"
       id="marker4484"
       refX="0"
       refY="0"
       orient="auto"
       inkscape:stockid="Arrow1Lstart">
      <path
         transform="matrix(0.8,0,0,0.8,10,0)"
         style="fill:#d0359d;fill-opacity:1;fill-rule:evenodd;stroke:#020100;stroke-width:1.00000003pt;stroke-opacity:1"
         d="M 0,0 5,-5 -12.5,0 5,5 Z"
         id="path4482"
         inkscape:connector-curvature="0" />
    </marker>
    <marker
       inkscape:isstock="true"
       style="overflow:visible"
       id="marker4402"
       refX="0"
       refY="0"
       orient="auto"
       inkscape:stockid="Arrow1Lstart">
      <path
         transform="matrix(0.8,0,0,0.8,10,0)"
         style="fill:#d0359d;fill-opacity:1;fill-rule:evenodd;stroke:#020100;stroke-width:1.00000003pt;stroke-opacity:1"
         d="M 0,0 5,-5 -12.5,0 5,5 Z"
         id="path4400"
         inkscape:connector-curvature="0" />
    </marker>
    <marker
       inkscape:isstock="true"
       style="overflow:visible"
       id="marker4326"
       refX="0"
       refY="0"
       orient="auto"
       inkscape:stockid="Arrow1Lstart">
      <path
         transform="matrix(0.8,0,0,0.8,10,0)"
         style="fill:#d0359d;fill-opacity:1;fill-rule:evenodd;stroke:#020100;stroke-width:1.00000003pt;stroke-opacity:1"
         d="M 0,0 5,-5 -12.5,0 5,5 Z"
         id="path4324"
         inkscape:connector-curvature="0" />
    </marker>
    <marker
       inkscape:isstock="true"
       style="overflow:visible"
       id="marker4256"
       refX="0"
       refY="0"
       orient="auto"
       inkscape:stockid="Arrow1Lstart">
      <path
         transform="matrix(0.8,0,0,0.8,10,0)"
         style="fill:#d0359d;fill-opacity:1;fill-rule:evenodd;stroke:#020100;stroke-width:1.00000003pt;stroke-opacity:1"
         d="M 0,0 5,-5 -12.5,0 5,5 Z"
         id="path4254"
         inkscape:connector-curvature="0" />
    </marker>
    <marker
       inkscape:isstock="true"
       style="overflow:visible"
       id="marker4192"
       refX="0"
       refY="0"
       orient="auto"
       inkscape:stockid="Arrow1Lstart">
      <path
         transform="matrix(0.8,0,0,0.8,10,0)"
         style="fill:#d0359d;fill-opacity:1;fill-rule:evenodd;stroke:#020100;stroke-width:1.00000003pt;stroke-opacity:1"
         d="M 0,0 5,-5 -12.5,0 5,5 Z"
         id="path4190"
         inkscape:connector-curvature="0" />
    </marker>
    <marker
       inkscape:isstock="true"
       style="overflow:visible"
       id="marker4134"
       refX="0"
       refY="0"
       orient="auto"
       inkscape:stockid="Arrow1Lstart">
      <path
         transform="matrix(0.8,0,0,0.8,10,0)"
         style="fill:#d0359d;fill-opacity:1;fill-rule:evenodd;stroke:#020100;stroke-width:1.00000003pt;stroke-opacity:1"
         d="M 0,0 5,-5 -12.5,0 5,5 Z"
         id="path4132"
         inkscape:connector-curvature="0" />
    </marker>
    <marker
       inkscape:isstock="true"
       style="overflow:visible"
       id="marker4082"
       refX="0"
       refY="0"
       orient="auto"
       inkscape:stockid="Arrow1Lstart">
      <path
         transform="matrix(0.8,0,0,0.8,10,0)"
         style="fill:#d0359d;fill-opacity:1;fill-rule:evenodd;stroke:#020100;stroke-width:1.00000003pt;stroke-opacity:1"
         d="M 0,0 5,-5 -12.5,0 5,5 Z"
         id="path4080"
         inkscape:connector-curvature="0" />
    </marker>
    <marker
       inkscape:isstock="true"
       style="overflow:visible"
       id="marker4036"
       refX="0"
       refY="0"
       orient="auto"
       inkscape:stockid="Arrow1Lstart">
      <path
         transform="matrix(0.8,0,0,0.8,10,0)"
         style="fill:#d0359d;fill-opacity:1;fill-rule:evenodd;stroke:#020100;stroke-width:1.00000003pt;stroke-opacity:1"
         d="M 0,0 5,-5 -12.5,0 5,5 Z"
         id="path4034"
         inkscape:connector-curvature="0" />
    </marker>
    <marker
       inkscape:isstock="true"
       style="overflow:visible"
       id="marker3996"
       refX="0"
       refY="0"
       orient="auto"
       inkscape:stockid="Arrow1Lstart">
      <path
         transform="matrix(0.8,0,0,0.8,10,0)"
         style="fill:#d0359d;fill-opacity:1;fill-rule:evenodd;stroke:#020100;stroke-width:1.00000003pt;stroke-opacity:1"
         d="M 0,0 5,-5 -12.5,0 5,5 Z"
         id="path3994"
         inkscape:connector-curvature="0" />
    </marker>
    <marker
       inkscape:isstock="true"
       style="overflow:visible"
       id="marker3962"
       refX="0"
       refY="0"
       orient="auto"
       inkscape:stockid="Arrow1Lstart">
      <path
         transform="matrix(0.8,0,0,0.8,10,0)"
         style="fill:#d0359d;fill-opacity:1;fill-rule:evenodd;stroke:#020100;stroke-width:1.00000003pt;stroke-opacity:1"
         d="M 0,0 5,-5 -12.5,0 5,5 Z"
         id="path3960"
         inkscape:connector-curvature="0" />
    </marker>
    <marker
       inkscape:isstock="true"
       style="overflow:visible"
       id="marker3934"
       refX="0"
       refY="0"
       orient="auto"
       inkscape:stockid="Arrow1Lstart">
      <path
         transform="matrix(0.8,0,0,0.8,10,0)"
         style="fill:#d0359d;fill-opacity:1;fill-rule:evenodd;stroke:#020100;stroke-width:1.00000003pt;stroke-opacity:1"
         d="M 0,0 5,-5 -12.5,0 5,5 Z"
         id="path3932"
         inkscape:connector-curvature="0" />
    </marker>
    <marker
       inkscape:isstock="true"
       style="overflow:visible"
       id="marker3912"
       refX="0"
       refY="0"
       orient="auto"
       inkscape:stockid="Arrow1Lstart">
      <path
         transform="matrix(0.8,0,0,0.8,10,0)"
         style="fill:#d0359d;fill-opacity:1;fill-rule:evenodd;stroke:#020100;stroke-width:1.00000003pt;stroke-opacity:1"
         d="M 0,0 5,-5 -12.5,0 5,5 Z"
         id="path3910"
         inkscape:connector-curvature="0" />
    </marker>
  </defs>
  <sodipodi:namedview
     id="base"
     pagecolor="#ffffff"
     bordercolor="#666666"
     borderopacity="1.0"
     inkscape:pageopacity="0.0"
     inkscape:pageshadow="2"
     inkscape:zoom="0.35"
     inkscape:cx="1163.3669"
     inkscape:cy="729.0654"
     inkscape:document-units="mm"
     inkscape:current-layer="svg8"
     showgrid="false"
     inkscape:window-width="1600"
     inkscape:window-height="800"
     inkscape:window-x="0"
     inkscape:window-y="25"
     inkscape:window-maximized="1"
     fit-margin-top="0"
     fit-margin-left="0"
     fit-margin-right="0"
     fit-margin-bottom="0" />
  <metadata
     id="metadata5">
    <rdf:RDF>
      <cc:Work
         rdf:about="">
        <dc:format>image/svg+xml</dc:format>
        <dc:type
           rdf:resource="http://purl.org/dc/dcmitype/StillImage" />
        <dc:title />
      </cc:Work>
    </rdf:RDF>
  </metadata>
  <g
     inkscape:groupmode="layer"
     id="layer2"
     inkscape:label="Lettuce"
     style="display:inline"
     transform="translate(147.58113,61.700111)" />
  <g
     inkscape:label="Shell"
     inkscape:groupmode="layer"
     id="layer1"
     style="display:inline"
     transform="translate(147.58113,61.700111)">
    <g
       id="g3070"
       transform="matrix(1.1592629,0,0,1.1592629,39.529845,-5.6697476)">
      <g
         id="g3534"
         transform="rotate(-19.770485,76.540847,139.50712)">
        <path
           style="fill:#2dd843;fill-opacity:1;fill-rule:evenodd;stroke:#000000;stroke-width:1;stroke-linecap:butt;stroke-linejoin:miter;stroke-miterlimit:4;stroke-dasharray:none;stroke-opacity:1"
           d="m -87.71159,170.00827 c 27.21429,-43.84524 23.43453,-19.65476 23.43453,-19.65476 22.652905,-62.592264 51.124758,-85.151875 67.2797584,-50.648813 0,0 24.9464266,-51.404761 38.5535696,-10.583337 62.744052,-48.380948 46.113095,9.82739 46.113095,9.82739 2.267857,-40.065479 51.404757,6.04761 51.404757,6.04761 0.75595,-15.874997 26.45834,-22.67857 22.67858,10.58334 9.32341,-2.77183 33.06993,-13.07126 34.7738,12.09524 15.88352,-26.39989 43.90448,3.16665 27.21429,27.21428 0,0 37.04167,28.72619 8.31548,28.72619 v 0 c 8.31548,15.875 -322.778561,9.05273 -322.778561,9.05273 -15.877109,6.80146 -11.563789,-37.23436 3.010701,-22.65987 z"
           id="path3055"
           inkscape:connector-curvature="0"
           sodipodi:nodetypes="ccccccccccccc" />
        <g
           id="g3528">
          <path
             sodipodi:nodetypes="cc"
             inkscape:connector-curvature="0"
             id="path815"
             d="m -90.722291,192.66814 c 133.154112,-239.191587 338.641231,-9.39335 341.677371,0.0187 -344.693175,1.50366 -341.677371,-0.0187 -341.677371,-0.0187 z"
             style="fill:#d8b22d;fill-opacity:1;fill-rule:evenodd;stroke:#000000;stroke-width:5;stroke-linecap:butt;stroke-linejoin:miter;stroke-miterlimit:4;stroke-dasharray:none;stroke-opacity:1" />
          <path
             style="fill:none;fill-rule:evenodd;stroke:#020100;stroke-width:5;stroke-linecap:butt;stroke-linejoin:miter;stroke-miterlimit:4;stroke-dasharray:none;stroke-opacity:1"
             d="m -43.845236,179.07143 c 27.214284,-31.75 27.970236,-68.03572 43.08928373,-34.01786 15.11904727,34.01786 30.23809427,61.98809 31.75000027,25.70238 1.511903,-36.28571 -15.875,-99.02976 0.755951,-54.42857 16.630952,44.60119 5.291667,131.53571 23.434524,68.79167 C 73.32738,122.375 43.845238,73.994047 73.32738,120.10714 c 29.48214,46.1131 34.03897,120.94412 49.89286,52.91667 15.85388,-68.02745 5.29166,-105.833335 22.67857,-52.16072 17.3869,53.67262 24.19047,99.78572 30.99404,60.47619 6.80358,-39.30952 8.33659,-38.56184 31.75,-18.14285 23.41342,20.41898 31.7289,49.14517 23.41342,20.41898"
             id="path3072"
             inkscape:connector-curvature="0" />
        </g>
      </g>
    </g>
  </g>
  <g
     inkscape:groupmode="layer"
     id="layer3"
     inkscape:label="Words"
     style="display:inline"
     transform="translate(147.58113,61.700111)">
    <g
       id="g3626">
      <path
         inkscape:connector-curvature="0"
         d="m -93.529202,18.328428 c -6.228345,-0.283541 -12.455638,-0.234413 -18.679748,0.0952 -5.7659,0.574823 -11.71112,0.842837 -17.09256,3.17025 14.93789,-8.405288 8.06399,-5.260415 5.5207,-2.413707 -1.10182,1.233276 -1.9722,2.633267 -2.81272,4.047938 -1.56786,3.0852 -3.02951,6.228133 -4.34074,9.430974 -1.15243,2.842345 -1.85688,5.783758 -2.22595,8.81935 -0.30695,3.230597 -0.29622,6.477973 -0.27512,9.719384 0.044,2.300052 -0.0458,4.604983 0.10842,6.901262 0.0611,0.364352 0.0766,0.73938 0.18342,1.093054 0.73269,2.426502 3.5252,5.171009 5.21579,6.947263 3.37097,3.400583 6.85489,6.675096 10.66957,9.572722 2.21813,1.65879 4.47927,3.357052 6.98813,4.564716 1.26065,0.606828 2.70096,1.070711 4.01506,1.532618 4.48631,1.369711 9.175447,1.63317 13.83068,1.805061 4.501925,0.05174 9.018822,0.230294 13.51471,-0.0682 0.556339,-0.12704 1.131456,-0.189606 1.66902,-0.381119 0.526132,-0.187439 1.985389,-1.023112 1.499495,-0.747694 -2.62246,1.486469 -5.190691,3.082745 -7.910862,4.381804 -0.638315,0.304837 1.109562,-0.88162 1.615914,-1.375561 1.36966,-1.336087 2.378294,-2.694614 3.578574,-4.189515 0,0 9.850921,-4.223689 9.850921,-4.223689 v 0 c -0.924231,1.223332 -2.307158,3.112307 -3.353181,4.284887 -3.977272,4.458488 -9.826389,7.866795 -15.763041,8.721939 -4.494387,0.153953 -8.995344,0.0019 -13.49023,-0.07289 -4.74149,-0.217363 -9.50297,-0.563785 -14.04656,-2.054537 -1.5867,-0.57835 -2.63656,-0.907751 -4.14519,-1.666759 -2.52721,-1.27146 -4.80594,-3.009834 -7.04533,-4.716978 -3.79563,-2.994237 -7.30496,-6.307667 -10.72476,-9.722427 -2.36935,-2.419734 -5.32168,-5.106427 -6.00684,-8.556405 -0.24126,-2.327593 -0.055,-4.676818 -0.10445,-7.013964 0.0401,-3.284442 0.0807,-6.572152 0.28802,-9.850874 0.27653,-3.137294 0.89734,-6.169735 2.10232,-9.096361 1.27151,-3.253771 2.78823,-6.405089 4.28666,-9.559096 3.86211,-7.434027 7.36214,-8.3552 15.90293,-12.860043 5.4313,-1.88963 11.21756,-2.149782 16.90844,-2.599789 6.447451,-0.311648 12.897514,-0.341733 19.348957,-0.516144 0,0 -9.080449,6.597333 -9.080449,6.597333 z"
         id="path3536"
         style="opacity:1;fill:#d0359d;fill-opacity:1;stroke:#000000;stroke-width:4;stroke-linecap:round;stroke-linejoin:round;stroke-miterlimit:4;stroke-dasharray:none;stroke-dashoffset:0;stroke-opacity:1;paint-order:normal"
         transform="translate(-2.2678571,-14.363095)" />
      <path
         inkscape:connector-curvature="0"
         d="m -40.274367,49.528715 c 3.051532,0.01302 6.138423,0.339476 9.173819,-0.108368 0.787111,-0.116129 1.561033,-0.308692 2.341549,-0.46304 0.765752,-0.277487 1.558348,-0.489841 2.297255,-0.832466 0.782484,-0.362831 3.020804,-1.665039 2.250797,-1.276427 -2.315509,1.168606 -4.441735,2.758533 -6.88912,3.617328 -0.995352,0.349274 1.62456,-1.346616 2.413505,-2.04682 1.780017,-1.579795 3.026318,-2.834573 4.725122,-4.49236 3.252113,-3.278145 6.595831,-6.512722 9.285116,-10.282903 1.54637,-2.259091 2.490874,-4.76773 2.698502,-7.492155 -0.293611,-3.168968 -2.52171,-3.7681 -5.247311,-4.353109 -4.280639,-0.641611 -8.609855,-0.652603 -12.91534,-0.336422 -1.343774,0.2843 -2.011437,0.356731 -3.269978,0.882213 -0.490725,0.204894 -1.88495,0.984729 -1.422855,0.721548 2.652445,-1.510675 5.242192,-3.146363 7.995253,-4.464796 0.602025,-0.288308 -1.037375,0.848724 -1.482704,1.345955 -0.553339,0.61783 -1.000299,1.323253 -1.500449,1.98488 -2.876656,4.430841 -4.879456,9.357554 -6.431082,14.388805 -1.187095,4.79028 -1.387475,9.779219 -1.150286,14.689607 0.209619,0.874705 0.310729,1.782779 0.628862,2.624109 2.038768,5.391724 6.622134,9.244142 11.04498,12.629755 5.384395,3.768395 11.757696,4.669878 18.1398277,5.192959 3.4469609,0.141118 6.94988251,0.485719 10.3591531,-0.243761 1.4756235,-0.315738 3.0028133,-0.8847 4.4254453,-1.370631 0.7227967,-0.341689 1.4642253,-0.646462 2.16839,-1.025062 0.7422279,-0.399063 2.9138689,-1.691971 2.1652819,-1.304968 -2.3866733,1.233856 -4.6225284,2.767608 -7.0828205,3.847222 -0.7926009,0.347805 1.3675704,-1.062543 2.0236138,-1.627161 1.3962006,-1.201626 2.0947054,-1.962417 3.366042,-3.255113 0,0 10.0278607,-4.169135 10.0278607,-4.169135 v 0 c -1.60651,1.664875 -3.44794,3.832677 -5.390567,5.086183 -5.0130237,3.234725 -10.2446553,6.769952 -15.8451835,9.09356 -1.7258659,0.532582 -2.7549056,0.915244 -4.5450132,1.206974 -3.4347115,0.559741 -6.9335803,0.159665 -10.3784103,-0.03486 -6.520111,-0.674976 -12.993247,-1.734908 -18.405452,-5.742467 -3.805759,-2.995371 -7.299066,-6.085808 -9.911017,-10.227548 -0.596392,-0.945692 -1.187003,-1.907249 -1.612016,-2.941359 -0.367006,-0.892969 -0.497983,-1.865572 -0.746977,-2.798358 -0.297019,-4.98902 -0.166455,-10.074301 0.875861,-14.976583 1.545304,-5.123411 3.718859,-10.07549 6.362845,-14.725715 0.444725,-0.705432 0.841018,-1.443832 1.334177,-2.116296 2.909136,-3.966846 8.12668,-5.613375 12.180401,-7.90062 1.473308,-0.831288 3.252313,-1.016388 4.886295,-1.251465 4.376515,-0.207703 8.787572,-0.09185 13.1222751,0.58404 3.2810431,0.849964 5.5551506,1.980611 6.1391551,5.604534 -0.0923,2.909609 -0.9680089,5.636293 -2.5498804,8.090902 -2.6265298,3.975594 -6.1771078,7.214154 -9.4955848,10.600061 -1.584208,1.560747 -3.053088,3.031796 -4.685767,4.543559 -0.766813,0.710022 -1.464135,1.514073 -2.334077,2.093153 -3.746987,2.494195 -7.616434,4.801129 -11.483581,7.104623 -1.962698,1.169093 -2.646143,1.234488 -4.782518,1.874052 -0.81094,0.132646 -1.616597,0.303069 -2.432818,0.397944 -3.157566,0.367019 -6.354542,0.03817 -9.521028,0.253333 0,0 9.080452,-6.597332 9.080452,-6.597331 z"
         id="path3538"
         style="opacity:1;fill:#d0359d;fill-opacity:1;stroke:#000000;stroke-width:4;stroke-linecap:round;stroke-linejoin:round;stroke-miterlimit:4;stroke-dasharray:none;stroke-dashoffset:0;stroke-opacity:1;paint-order:normal"
         transform="translate(-2.2678571,-14.363095)" />
      <path
         inkscape:connector-curvature="0"
         d="m 31.600592,-21.219008 c 2.339609,6.926641 5.91177,13.3577981 9.261078,19.8304662 4.300791,8.1168607 7.867385,16.5659918 10.668468,25.3073628 1.504413,4.840939 2.31381,9.857208 3.06868,14.858685 0.571928,3.800898 0.801206,7.6376 0.907293,11.475733 0.03153,1.839193 0.02774,3.678722 0.03336,5.518105 0,0 -9.750145,4.970981 -9.750145,4.970981 v 0 c -0.0034,-1.828549 -0.01119,-3.657055 -0.04639,-5.485339 C 45.667802,51.445512 45.518709,47.629419 44.996837,43.848571 44.278348,38.869137 43.515911,33.879151 42.231428,29.009146 39.685499,20.232301 36.386518,11.722547 32.015302,3.6755091 28.549464,-2.7302912 24.938849,-9.0665868 21.858625,-15.672084 c 0,0 9.741967,-5.546924 9.741967,-5.546924 z"
         id="path3540"
         style="opacity:1;fill:#d0359d;fill-opacity:1;stroke:#000000;stroke-width:4;stroke-linecap:round;stroke-linejoin:round;stroke-miterlimit:4;stroke-dasharray:none;stroke-dashoffset:0;stroke-opacity:1;paint-order:normal"
         transform="translate(-2.2678571,-14.363095)" />
      <path
         inkscape:connector-curvature="0"
         d="m 84.54043,32.903406 c 0.320315,-0.07648 0.645551,-0.13468 0.960943,-0.229436 1.254291,-0.37684 1.742297,-0.606683 2.947527,-1.267629 0.653298,-0.358268 2.580645,-1.490292 1.926407,-1.133739 -7.379565,4.021795 -9.436989,5.652903 -4.759362,2.262019 4.569264,-3.542901 8.86169,-7.419072 13.224775,-11.207607 2.25445,-1.901478 4.39979,-3.93745 6.24588,-6.240815 1.20643,-1.523687 1.57359,-3.346383 1.76145,-5.2290123 -0.11878,-0.7336629 -0.0715,-1.1240053 -0.65573,-1.7044398 C 104.68834,6.6585396 101.62701,6.0565723 99.656343,5.5658215 96.419586,4.857171 93.109032,4.6993677 89.807985,4.6398738 c -2.448147,-0.020923 -4.89649,0.00972 -7.344537,0.034256 -0.493866,0.00471 -1.392415,-0.03539 -1.883095,0.151248 C 80.269798,4.9435025 79.43956,5.5067416 79.730546,5.3463486 82.62342,3.7517718 85.438299,2.0114535 88.38686,0.52236583 88.784603,0.32149655 87.711413,1.1106497 87.431389,1.4572549 87.098091,1.8698035 86.848732,2.3436244 86.557401,2.7868094 84.29673,7.2984772 83.964138,12.408521 83.625532,17.358026 c -0.270605,5.408054 -0.255989,10.824933 -0.21632,16.237949 0.176495,3.603455 -0.34103,7.278751 0.648356,10.785107 0.237241,0.410117 0.417277,0.85916 0.711718,1.230352 2.292345,2.889882 7.220064,3.727072 10.561651,4.526918 6.839363,1.303435 13.824533,1.731197 20.777213,1.669727 2.85737,0.0093 5.34566,-0.943904 7.90412,-2.068068 0,0 -8.46492,6.660904 -8.46492,6.660904 v 0 c -2.63324,0.972801 -5.20726,1.777928 -8.06697,1.673555 -7.0072,-0.08408 -14.037314,-0.556413 -20.931215,-1.864513 -3.841692,-0.911741 -8.723701,-1.741234 -11.314062,-5.09338 -0.343413,-0.444407 -0.561763,-0.972698 -0.842642,-1.459047 -0.157552,-0.521608 -0.361276,-1.031441 -0.472652,-1.564818 -0.634439,-3.038311 0.09196,-6.496423 -0.155091,-9.58206 0.03458,-5.448404 0.02943,-10.899654 0.27595,-16.343753 0.282601,-5.028752 0.559504,-10.176908 2.479429,-14.8982102 0.24275,-0.5053602 0.441169,-1.0345211 0.728252,-1.5160807 2.780856,-4.6646547 8.819116,-7.6574025 14.203333,-7.6164214 2.435183,-0.00243 4.870609,-0.018095 7.305408,0.037855 3.32255,0.1156655 6.64248,0.4124785 9.87937,1.21355193 2.39424,0.6613509 5.36248,1.2906851 7.14135,3.19056377 0.75201,0.8031618 0.77078,1.3200362 1.03729,2.3084171 -0.15057,2.0367963 -0.39708,4.05234 -1.51117,5.8230225 -1.875,2.439084 -4.04956,4.614963 -6.44202,6.554507 -4.42394,3.768041 -8.74555,7.654793 -13.267665,11.306889 -5.646354,4.309643 -1.997115,1.658831 -13.659763,8.524482 -1.993886,1.173775 -4.111624,2.243608 -6.458965,2.393975 0,0 9.064913,-6.586044 9.064913,-6.586044 z"
         id="path3542"
         style="opacity:1;fill:#d0359d;fill-opacity:1;stroke:#000000;stroke-width:4;stroke-linecap:round;stroke-linejoin:round;stroke-miterlimit:4;stroke-dasharray:none;stroke-dashoffset:0;stroke-opacity:1;paint-order:normal"
         transform="translate(-2.2678571,-14.363095)" />
      <path
         inkscape:connector-curvature="0"
         d="m 140.21095,54.074362 c 0.37487,-7.083435 0.27479,-14.181599 0.18709,-21.27123 -0.0826,-4.70662 -0.0683,-9.414003 -0.12823,-14.120876 0.0216,-2.983859 -0.0384,-5.955549 -0.43056,-8.915491 -0.55354,-3.1652111 -1.51069,-6.2297597 -2.03,-9.40137593 -0.46757,-4.08159607 -0.48621,-8.19777287 -0.54975,-12.30074907 -0.0434,-2.992166 -0.0679,-5.984423 -0.0927,-8.976774 -0.003,-2.592575 0.0295,-5.184989 0.0439,-7.777474 0.0184,-2.906805 0.002,-5.813462 -0.0293,-8.720087 -0.009,-0.952744 -0.0182,-1.905379 -0.037,-2.857979 0,0 9.94935,-5.069472 9.94935,-5.069472 v 0 c -0.0186,0.965147 -0.0278,1.930323 -0.0369,2.89561 -0.0314,2.91691 -0.0476,5.833843 -0.0305,8.750933 0.0127,2.581216 0.0433,5.162441 0.0274,7.743732 -0.0391,3.016493 -0.0812,6.033166 -0.0813,9.049935 0.0202,4.041473 0.0428,8.0980147 0.55155,12.1136427 0.51195,3.1773834 1.42107,6.2570013 2.05685,9.4099384 0.46661,3.0177412 0.57471,6.0382489 0.43496,9.0897329 -0.0597,4.750431 -0.046,9.501361 -0.12823,14.251545 -0.0858,7.025911 -0.19451,14.061214 0.18709,21.080578 0,0 -9.86381,5.025861 -9.86381,5.025861 z"
         id="path3544"
         style="opacity:1;fill:#d0359d;fill-opacity:1;stroke:#000000;stroke-width:4;stroke-linecap:round;stroke-linejoin:round;stroke-miterlimit:4;stroke-dasharray:none;stroke-dashoffset:0;stroke-opacity:1;paint-order:normal"
         transform="translate(-2.2678571,-14.363095)" />
      <path
         inkscape:connector-curvature="0"
         d="m 153.08636,2.1857536 c 3.07476,-1.025389 6.12846,-2.11084078 9.16111,-3.2545647 3.54634,-1.2786682 7.17298,-2.1816925 10.90071,-2.7119323 4.01352,-0.6311651 4.81273,-0.034878 7.08204,3.28178318 2.57303,4.61775012 4.4171,9.59818522 6.13457,14.58412322 1.45276,4.273469 1.99283,8.770641 2.44882,13.239443 0.28668,3.633411 0.59092,7.281873 0.47259,10.928654 -0.36225,3.476014 -2.06346,6.402925 -4.3019,8.998937 -5.53551,5.397238 -12.85108,8.768231 -19.44837,12.535837 -4.09631,2.126808 -8.56633,3.072963 -13.1046,3.629641 -2.1181,-0.0089 -4.64131,0.891778 -6.60564,-0.176046 -1.30865,-1.240065 -2.44711,-2.67032 -3.5707,-4.079816 -1.50971,-1.937216 -2.95169,-3.922284 -4.51794,-5.815809 -0.73666,-0.848167 -0.39403,-0.419243 -1.03244,-1.283134 0,0 9.62537,-5.688013 9.62537,-5.688013 v 0 c 0.5741,0.817669 0.26044,0.395272 0.9486,1.261491 1.52071,1.922667 2.92565,3.934638 4.48403,5.827491 1.04489,1.238321 2.0922,2.586953 3.39572,3.550888 1.958,0.470993 4.07692,-0.110972 6.04947,-0.144751 4.44405,-0.586134 8.77979,-1.676749 12.73665,-3.861125 -15.43723,9.031006 -1.98051,1.569262 0.91376,-1.520783 2.32294,-2.297507 4.03024,-5.014071 4.58837,-8.281165 0.23541,-3.613417 -0.0297,-7.244537 -0.26651,-10.85204 -0.43205,-4.399864 -0.97781,-8.821843 -2.25613,-13.067761 -1.602,-4.905461 -3.42683,-9.7877386 -6.12437,-14.2099786 -2.31558,-2.9987703 -2.82487,-2.7348386 -6.45579,-2.2601055 -3.6591,0.5699255 -7.21606,1.5525713 -10.68972,2.8406812 -3.11345,1.1566755 -6.28347,2.1892334 -9.32199,3.530664 0,0 8.75429,-7.0026095 8.75429,-7.0026095 z"
         id="path3546"
         style="opacity:1;fill:#d0359d;fill-opacity:1;stroke:#000000;stroke-width:4;stroke-linecap:round;stroke-linejoin:round;stroke-miterlimit:4;stroke-dasharray:none;stroke-dashoffset:0;stroke-opacity:1;paint-order:normal"
         transform="translate(-2.2678571,-14.363095)" />
      <path
         inkscape:connector-curvature="0"
         d="m 199.86274,54.832637 c 0.21625,-4.452485 0.20997,-8.912085 0.2115,-13.368658 -0.0301,-4.536406 -0.0759,-9.072424 -0.0567,-13.608966 0.0709,-2.792629 -0.21227,-5.616174 0.33863,-8.378975 0.36824,-1.84679 0.65892,-2.39958 1.32172,-4.162498 1.64717,-3.796963 4.09924,-7.1415534 6.95131,-10.1126662 5.06949,-4.8740713 11.34866,-8.3205012 17.679,-11.2990293 2.73888,-1.4381768 5.69743,-2.3575319 8.69131,-3.0888743 2.16744,-0.5069605 4.38597,-0.6611213 6.59967,-0.8026549 0,0 -8.83393,6.5182937 -8.83393,6.5182937 v 0 c -2.18365,0.1832751 -4.36862,0.4066199 -6.49366,0.9717146 -2.94928,0.8160991 -5.84017,1.82398721 -8.55222,3.26069163 -3.84377,1.96182427 -3.838,1.99418887 6.48907,-3.91014843 0.49191,-0.2812423 -0.95756,0.6065358 -1.42548,0.9261004 -0.96591,0.6596594 -1.83745,1.31331357 -2.72937,2.07081036 -0.44053,0.37413617 -0.85973,0.7726828 -1.2896,1.15902444 -2.95371,2.7977356 -5.47552,6.0395545 -7.21287,9.736817 -0.74037,1.77091 -0.95112,2.066825 -1.38881,3.926667 -0.63689,2.7063 -0.42586,5.492775 -0.45356,8.246809 0.0193,4.555815 -0.027,9.111113 -0.0567,13.666796 0.002,4.384674 -0.009,8.772749 0.2115,13.153133 0,0 -10.00071,5.095613 -10.00071,5.095613 z"
         id="path3548"
         style="opacity:1;fill:#d0359d;fill-opacity:1;stroke:#000000;stroke-width:4;stroke-linecap:round;stroke-linejoin:round;stroke-miterlimit:4;stroke-dasharray:none;stroke-dashoffset:0;stroke-opacity:1;paint-order:normal"
         transform="translate(-2.2678571,-14.363095)" />
      <path
         inkscape:connector-curvature="0"
         d="m 277.10898,-7.7630244 c -0.28927,6.4011513 -0.2861,12.8111743 -0.28676,19.2174674 -0.008,6.751488 0.0418,13.502931 0.11533,20.253975 -0.0924,4.361775 0.23083,8.708381 0.51755,13.056408 0.14836,2.178214 0.30486,4.355605 0.42162,6.535753 0,0 -9.97588,5.113917 -9.97588,5.113917 v 0 c 0.008,-2.209938 -0.0578,-4.41987 -0.15952,-6.627276 -0.23357,-4.394977 -0.56906,-8.787677 -0.39317,-13.19275 0.0732,-6.790227 0.1237,-13.580842 0.11534,-20.371506 0,-6.308825 0.007,-12.621806 -0.28676,-18.9252506 0,0 9.93225,-5.0607378 9.93225,-5.0607378 z"
         id="path3550"
         style="opacity:1;fill:#d0359d;fill-opacity:1;stroke:#000000;stroke-width:4;stroke-linecap:round;stroke-linejoin:round;stroke-miterlimit:4;stroke-dasharray:none;stroke-dashoffset:0;stroke-opacity:1;paint-order:normal"
         transform="translate(-2.2678571,-14.363095)" />
      <path
         inkscape:connector-curvature="0"
         d="m 267.89846,-23.030456 c 0.0618,-1.613504 0.0465,-3.228827 0.0409,-4.843164 0,0 9.91894,-5.053954 9.91894,-5.053954 v 0 c -0.006,1.600438 -0.0217,3.201929 0.0409,4.801505 0,0 -10.0007,5.095613 -10.0007,5.095613 z"
         id="path3552"
         style="opacity:1;fill:#d0359d;fill-opacity:1;stroke:#000000;stroke-width:4;stroke-linecap:round;stroke-linejoin:round;stroke-miterlimit:4;stroke-dasharray:none;stroke-dashoffset:0;stroke-opacity:1;paint-order:normal"
         transform="translate(-2.2678571,-14.363095)" />
      <path
         inkscape:connector-curvature="0"
         d="m 323.24773,-27.702138 c -0.10176,3.124462 -0.0928,6.251458 -0.14091,9.377185 -0.12383,5.903513 -0.11155,11.8085799 -0.0641,17.71283102 -0.0759,5.05527118 0.21545,10.10112428 0.48125,15.14678198 0.20534,3.321393 0.18309,6.65558 0.60344,9.959839 0.60647,2.637745 0.91008,5.318706 1.1058,8.013883 0.0929,2.721478 0.28688,5.439935 0.73699,8.127028 0.31483,1.658691 0.71345,3.301833 0.94165,4.975757 0,0 -9.93571,5.206224 -9.93571,5.206224 v 0 c -0.15417,-1.677881 -0.46559,-3.333831 -0.78941,-4.98621 -0.4762,-2.724621 -0.65929,-5.488469 -0.7361,-8.250888 -0.18438,-2.67293 -0.48921,-5.328745 -1.1439,-7.933146 -0.38195,-3.372599 -0.23571,-6.763021 -0.4082,-10.150892 -0.21071,-5.075154 -0.59055,-10.1472205 -0.42944,-15.2303684 0.0469,-5.8824899 0.0611,-11.7658326 -0.064,-17.6475686 -0.0482,-3.077845 -0.0383,-6.157039 -0.14094,-9.233564 0,0 9.98357,-5.086892 9.98357,-5.086892 z"
         id="path3554"
         style="opacity:1;fill:#d0359d;fill-opacity:1;stroke:#000000;stroke-width:4;stroke-linecap:round;stroke-linejoin:round;stroke-miterlimit:4;stroke-dasharray:none;stroke-dashoffset:0;stroke-opacity:1;paint-order:normal"
         transform="translate(-2.2678571,-14.363095)" />
      <path
         inkscape:connector-curvature="0"
         d="m 293.17239,-2.9460658 c 8.28254,-5.3324958 10.50586,-6.869242 18.81605,-7.6164292 3.54994,-0.251486 7.10838,-0.317429 10.66578,-0.353202 2.2135,-0.006 4.42701,-0.012 6.64054,-0.01555 1.73688,0.0062 3.47374,0.0032 5.21065,0.0023 1.70754,0.133864 3.36214,-0.159488 5.04227,-0.401615 2.26256,-0.103157 4.43233,-0.333467 6.57789,-1.083569 0,0 -8.76139,6.7726242 -8.76139,6.7726242 v 0 c -2.21753,0.5893215 -4.46868,0.7358605 -6.74153,0.9899028 -1.71098,0.2397868 -3.41744,0.3602045 -5.14697,0.2826549 -1.73487,-0.00204 -3.46964,-0.00734 -5.20451,-0.010628 -2.18154,-0.017298 -4.36306,-0.046233 -6.54468,-0.042537 -3.50282,0.00161 -7.01146,0.037285 -10.50145,0.3673509 -1.85697,0.2221092 -3.69017,0.4499242 -5.4923,0.973751 -3.89847,1.1331663 -10.15883,5.4364014 5.87042,-3.9463566 0,0 -10.43077,4.081268 -10.43077,4.081268 z"
         id="path3556"
         style="opacity:1;fill:#d0359d;fill-opacity:1;stroke:#000000;stroke-width:4;stroke-linecap:round;stroke-linejoin:round;stroke-miterlimit:4;stroke-dasharray:none;stroke-dashoffset:0;stroke-opacity:1;paint-order:normal"
         transform="translate(-2.2678571,-14.363095)" />
      <path
         inkscape:connector-curvature="0"
         d="m 358.91383,5.107364 c 1.26257,2.7779326 2.64507,5.498677 3.91993,8.270659 1.42754,3.020822 3.16429,5.882567 5.04423,8.639629 1.85132,2.599258 3.99902,4.964493 6.10341,7.35644 2.0869,2.226742 4.1888,4.446278 6.55013,6.386405 1.21132,0.960872 0.60566,0.521101 1.81017,1.328616 0,0 -9.37273,5.964745 -9.37273,5.964745 v 0 c -1.2157,-0.904111 -0.60687,-0.42563 -1.823,-1.439939 -2.31818,-2.05454 -4.46757,-4.285081 -6.57143,-6.556489 -2.14006,-2.423824 -4.31567,-4.826809 -6.19644,-7.463189 -1.89722,-2.814188 -3.60251,-5.764571 -5.07476,-8.823485 -1.28778,-2.715866 -2.60514,-5.426599 -4.10318,-8.033395 0,0 9.71367,-5.629997 9.71367,-5.629997 z"
         id="path3558"
         style="opacity:1;fill:#d0359d;fill-opacity:1;stroke:#000000;stroke-width:4;stroke-linecap:round;stroke-linejoin:round;stroke-miterlimit:4;stroke-dasharray:none;stroke-dashoffset:0;stroke-opacity:1;paint-order:normal"
         transform="translate(-2.2678571,-14.363095)" />
      <path
         inkscape:connector-curvature="0"
         d="m 408.93101,12.076448 c -5.87201,6.644026 -12.05672,12.998561 -18.31774,19.273781 -7.40651,7.138661 -14.94687,14.135298 -22.4381,21.184189 -3.74584,3.254664 -6.71036,7.172082 -9.41549,11.298642 -2.66451,4.473628 -5.6742,8.72217 -8.60753,13.01962 -2.71251,3.700189 -4.83571,7.749288 -6.69308,11.928967 -0.23884,0.520848 -0.47768,1.041696 -0.71649,1.562544 0,0 -9.98728,4.542655 -9.98728,4.542655 v 0 c 0.25622,-0.52088 0.51244,-1.04176 0.76866,-1.56264 1.92985,-4.212407 3.95391,-8.392726 6.70973,-12.144745 2.93659,-4.302718 6.03332,-8.503682 8.66164,-13.007911 2.65927,-4.265687 5.55897,-8.348131 9.44028,-11.607036 7.77539,-7.05667 15.54702,-14.119986 23.10503,-21.410859 5.96286,-6.039252 11.8668,-12.163156 17.23144,-18.74759 0,0 10.25893,-4.329617 10.25893,-4.329617 z"
         id="path3560"
         style="opacity:1;fill:#d0359d;fill-opacity:1;stroke:#000000;stroke-width:4;stroke-linecap:round;stroke-linejoin:round;stroke-miterlimit:4;stroke-dasharray:none;stroke-dashoffset:0;stroke-opacity:1;paint-order:normal"
         transform="translate(-2.2678571,-14.363095)" />
      <path
         inkscape:connector-curvature="0"
         d="m -26.800982,263.05749 c -0.323961,6.93099 -0.281054,13.87346 -0.270216,20.81021 0.0066,6.87404 0.02593,13.74807 0.107471,20.62165 0.07906,4.22437 0.09196,8.44865 0.06044,12.67346 -0.02477,4.07316 0.01506,8.14637 0.03759,12.21947 0.01601,3.05369 0.01363,6.1074 0.04413,9.16101 0.01307,2.06973 0.01212,4.13986 0.04928,6.20935 0.03183,1.70664 -0.01717,3.41294 -0.03693,5.11939 -0.02244,1.18529 -0.0024,2.3707 0.008,3.55595 0,0 -9.897602,5.04309 -9.897602,5.04309 v 0 c 0.01032,-1.18798 0.03043,-2.37614 0.008,-3.56412 -0.01984,-1.69394 -0.06899,-3.38767 -0.03693,-5.08177 0.03679,-2.08624 0.03636,-4.17309 0.04928,-6.25957 0.03035,-3.06861 0.02821,-6.1373 0.04413,-9.20599 0.02249,-4.08588 0.06225,-8.17184 0.03759,-12.25778 -0.03192,-4.24534 -0.01765,-8.49013 0.06044,-12.73503 0.081,-6.91009 0.101045,-13.82064 0.107471,-20.73116 0.01066,-6.84487 0.05888,-13.69602 -0.270213,-20.53486 0,0 9.898033,-5.0433 9.898033,-5.0433 z"
         id="path3562"
         style="opacity:1;fill:#d0359d;fill-opacity:1;stroke:#000000;stroke-width:4;stroke-linecap:round;stroke-linejoin:round;stroke-miterlimit:4;stroke-dasharray:none;stroke-dashoffset:0;stroke-opacity:1;paint-order:normal"
         transform="translate(-2.2678571,-14.363095)" />
      <path
         inkscape:connector-curvature="0"
         d="m -82.6077,267.99895 c 3.531915,0.10287 7.066079,0.10038 10.599209,0.10855 4.707085,-0.0753 9.325075,-1.08961 13.890021,-2.15294 3.647326,-0.65547 7.202231,-1.60242 10.711206,-2.78265 4.00821,-1.14445 8.020482,-2.25713 12.065373,-3.26326 4.654333,-0.96634 9.393492,-1.42921 14.088009,-2.14856 3.260044,-0.57913 6.570092,-0.71278 9.818444,-1.3465 3.3281218,-0.80844 6.4806716,-2.14945 9.7909683,-3.022 4.5718055,-0.82159 9.2101521,-1.27237 13.8236277,-1.82039 5.064063,-0.37149 10.104447,-0.93498 15.11577,-1.75443 2.987494,-0.57376 5.94989,-1.2782 8.894229,-2.0411 0,0 -8.650817,6.61567 -8.650817,6.61567 v 0 c -2.948382,0.71362 -5.904418,1.41301 -8.896672,1.91972 -5.022633,0.74867 -10.0630288,1.28473 -15.1225066,1.71146 -4.6283549,0.56139 -9.3011182,0.98657 -13.8468554,2.04799 -3.300937,0.982 -6.507563,2.29252 -9.893884,2.9696 -3.233653,0.53852 -6.514108,0.70933 -9.749951,1.24672 -4.680148,0.63398 -9.392571,1.13526 -13.997096,2.2197 -4.059512,1.02864 -8.088704,2.17011 -12.095824,3.38707 -3.505766,1.13569 -7.078143,1.94675 -10.697191,2.6373 -4.6189,0.99989 -9.278464,1.97236 -14.028489,1.95683 -3.632755,0.008 -7.266384,0.008 -10.898023,0.10855 0,0 9.080452,-6.59733 9.080452,-6.59733 z"
         id="path3564"
         style="opacity:1;fill:#d0359d;fill-opacity:1;stroke:#000000;stroke-width:4;stroke-linecap:round;stroke-linejoin:round;stroke-miterlimit:4;stroke-dasharray:none;stroke-dashoffset:0;stroke-opacity:1;paint-order:normal"
         transform="translate(-2.2678571,-14.363095)" />
      <path
         inkscape:connector-curvature="0"
         d="m 46.239331,303.31683 c -5.056523,-0.17569 -10.118132,-0.15497 -15.177079,-0.15251 -4.668389,-0.0601 -9.506277,-0.25649 -13.801192,1.91024 -0.743037,0.37483 -1.414366,0.87752 -2.121549,1.31625 13.633987,-8.24664 6.47692,-3.69613 3.875282,-0.69107 -1.50727,1.74099 -2.616303,3.65496 -3.709926,5.66698 -2.149784,3.86503 -2.948596,8.16517 -3.396768,12.50789 -0.496135,3.48104 0.115558,6.20606 1.750221,9.24745 1.383604,2.19437 3.281862,3.73517 5.574591,4.87849 2.365701,1.2523 4.990634,1.56223 7.615448,1.76162 3.305091,0.10594 6.633791,0.33957 9.921699,-0.0701 0.586301,-0.19916 1.191098,-0.35045 1.758902,-0.59743 0.572342,-0.24895 2.192586,-1.19365 1.649884,-0.88538 -2.575272,1.46283 -5.116306,2.99051 -7.747963,4.34927 -0.584613,0.30184 1.077647,-0.75678 1.589876,-1.16972 1.149932,-0.92699 1.722575,-1.55109 2.756902,-2.5832 2.967281,-2.87843 4.771496,-6.53863 6.376998,-10.28478 1.358231,-3.12195 2.283672,-6.39998 3.065883,-9.70577 0.585679,-2.69226 1.312178,-5.34976 1.96373,-8.02597 0.330547,-1.70003 0.591241,-3.41511 0.854713,-5.12763 0.185785,-1.56858 0.105865,-0.78242 0.239657,-2.35844 0,0 9.916231,-4.95432 9.916231,-4.95432 v 0 c -0.117864,1.60377 -0.05446,0.80327 -0.190146,2.40146 -0.201578,1.75088 -0.478192,3.49282 -0.778065,5.22798 -0.690364,2.69732 -1.555708,5.34803 -2.129012,8.07604 -0.718542,3.3792 -1.630953,6.72658 -3.012318,9.90174 -1.617893,3.80039 -3.301032,7.62989 -6.199675,10.65099 -5.140729,5.35916 -11.631535,9.85715 -18.911872,11.61166 -3.361549,0.26069 -6.739712,0.12835 -10.104098,-0.0518 -2.749088,-0.27061 -5.453791,-0.7393 -7.9036042,-2.09986 -2.4104801,-1.34742 -4.4262087,-3.07684 -5.8868173,-5.45912 -1.6998457,-3.23234 -2.463319,-6.19107 -1.9310963,-9.88338 0.4391524,-4.44397 1.134225,-8.90961 3.2602882,-12.90415 4.5979056,-9.05539 8.3058376,-10.66591 18.1341766,-16.22798 0.738244,-0.38725 1.44756,-0.83551 2.214733,-1.16168 4.420292,-1.87939 9.263612,-1.56184 13.949983,-1.54731 5.198959,0.003 10.400144,0.0177 15.596896,-0.15251 0,0 -9.064913,6.58604 -9.064913,6.58604 z"
         id="path3566"
         style="opacity:1;fill:#d0359d;fill-opacity:1;stroke:#000000;stroke-width:4;stroke-linecap:round;stroke-linejoin:round;stroke-miterlimit:4;stroke-dasharray:none;stroke-dashoffset:0;stroke-opacity:1;paint-order:normal"
         transform="translate(-2.2678571,-14.363095)" />
      <path
         inkscape:connector-curvature="0"
         d="m 59.428924,293.48284 c -0.142129,3.30703 -0.132368,6.6189 -0.133273,9.92839 -0.203798,3.59992 0.205785,7.09901 1.048734,10.58894 1.111869,4.14607 2.3388,8.26532 3.646096,12.35451 0.966163,3.0385 2.512057,5.81228 4.090694,8.56133 1.278768,2.09955 2.348245,4.284 3.305595,6.54368 0.669772,1.54874 1.261602,3.13081 1.866109,4.70625 0,0 -9.688452,5.38231 -9.688452,5.38231 v 0 c -0.573928,-1.57012 -1.159242,-3.14018 -1.844931,-4.66513 -0.938427,-2.222 -1.986116,-4.37579 -3.222694,-6.45123 -1.551641,-2.85248 -3.133225,-5.69915 -4.064831,-8.83277 -1.283462,-4.1165 -2.470546,-8.26294 -3.712495,-12.39198 -0.933424,-3.56687 -1.414312,-7.13647 -1.157986,-10.83609 -7.94e-4,-3.26419 0.01098,-6.53097 -0.133271,-9.79259 0,0 10.000705,-5.09562 10.000705,-5.09562 z"
         id="path3568"
         style="opacity:1;fill:#d0359d;fill-opacity:1;stroke:#000000;stroke-width:4;stroke-linecap:round;stroke-linejoin:round;stroke-miterlimit:4;stroke-dasharray:none;stroke-dashoffset:0;stroke-opacity:1;paint-order:normal"
         transform="translate(-2.2678571,-14.363095)" />
      <path
         inkscape:connector-curvature="0"
         d="m 120.24001,287.43619 c -4.96126,-0.20651 -9.9204,-0.22058 -14.86796,0.21259 -2.54691,0.44175 -5.13683,0.88159 -7.53517,1.89455 -0.742839,0.31374 -2.84857,1.51043 -2.155333,1.09852 9.863623,-5.86083 8.849783,-5.24576 5.162683,-2.68126 -4.724342,3.67546 -8.138706,8.57692 -11.12219,13.69312 -2.519336,4.43957 -3.420798,9.36656 -3.859625,14.37918 0.04855,5.12884 2.19184,8.10069 5.837539,11.44404 4.658903,3.80532 9.410706,5.62076 15.179986,7.05223 6.78145,1.36605 13.71841,1.56322 20.61296,1.66786 2.47125,-0.0571 4.97159,-0.0997 7.35676,-0.83423 3.48547,-1.07339 11.2827,-5.89071 -4.09127,2.7292 3.04387,-2.07875 5.06145,-5.16488 6.95697,-8.2505 0,0 9.97454,-4.4132 9.97454,-4.4132 v 0 c -1.89874,3.14632 -3.86461,6.35728 -6.74935,8.70432 -3.78402,2.20771 -9.56907,6.57905 -14.75795,7.79121 -2.40813,0.56258 -4.89906,0.54639 -7.35435,0.5371 -6.92638,-0.2242 -13.89516,-0.4758 -20.700675,-1.89632 -1.093433,-0.27815 -2.199243,-0.51154 -3.280296,-0.83449 -4.516549,-1.34922 -8.69034,-3.61019 -12.355899,-6.56342 -3.827219,-3.59902 -6.180016,-6.84731 -6.330738,-12.29177 0.409744,-5.1634 1.263084,-10.25978 3.787391,-14.86797 2.940421,-5.17522 6.266077,-10.17061 10.840376,-14.06361 5.209789,-3.9692 2.54418,-2.07248 13.360321,-8.04442 0.71046,-0.39227 1.46812,-0.6976 2.23015,-0.97676 2.45679,-0.90009 5.06241,-1.31958 7.64336,-1.66198 5.08482,-0.35131 10.17491,-0.2326 15.26714,-0.39875 0,0 -9.04937,6.57476 -9.04937,6.57476 z"
         id="path3570"
         style="opacity:1;fill:#d0359d;fill-opacity:1;stroke:#000000;stroke-width:4;stroke-linecap:round;stroke-linejoin:round;stroke-miterlimit:4;stroke-dasharray:none;stroke-dashoffset:0;stroke-opacity:1;paint-order:normal"
         transform="translate(-2.2678571,-14.363095)" />
      <path
         inkscape:connector-curvature="0"
         d="m 191.07199,281.86166 c -7.08978,-0.98857 -14.2713,-1.1089 -21.41841,-1.25439 -2.12057,0.0407 -3.93252,-0.10771 -5.96867,0.59108 -0.79741,0.27368 -2.99617,1.5467 -2.23672,1.18065 2.45706,-1.18425 4.65448,-3.10846 7.33058,-3.63578 1.00633,-0.1983 -1.24427,1.63936 -1.74418,2.53498 -0.58109,1.04108 -0.99109,2.16881 -1.48663,3.25321 -2.64255,7.96581 -3.4044,16.403 -3.95605,24.73338 -0.29264,4.64045 -0.28451,9.29021 -0.25378,13.93717 0.10366,0.47958 0.13366,0.98128 0.31096,1.4388 1.58072,4.07913 7.31129,5.98469 10.95148,7.33234 7.97793,2.60829 16.34031,3.51182 24.67515,4.02625 4.02359,0.0358 8.09938,0.55234 12.11286,0.0259 2.2802,-0.29911 2.6648,-0.53584 4.79395,-1.24373 6.3022,-3.1877 -3.55897,2.31444 -5.4606,3.24583 -0.62166,0.30448 1.11007,-0.83558 1.59622,-1.32834 1.73811,-1.76183 2.6682,-3.9316 3.64373,-6.15688 2.08496,-5.85782 2.78003,-12.0419 3.2283,-18.20381 0.16316,-2.86337 0.23401,-5.73127 0.26012,-8.59888 0.0168,-1.84684 0.10145,-2.83871 -0.25073,-4.61955 -0.12561,-0.63521 -0.35372,-1.24576 -0.53058,-1.86861 -1.40297,-3.65284 -3.75204,-5.75959 -7.19892,-7.43239 -3.47595,-1.47592 -7.24633,-1.94569 -10.83414,-3.0788 -2.00893,-0.89916 -1.01487,-0.45974 -2.98189,-1.31892 0,0 9.16071,-6.09483 9.16071,-6.09483 v 0 c 1.92508,0.84383 0.95772,0.43497 2.90204,1.22663 3.62448,1.11541 7.42856,1.66119 10.8937,3.26041 3.76318,1.99387 6.05514,4.18259 7.63699,8.21899 0.19266,0.67948 0.44253,1.3453 0.57799,2.03845 0.37794,1.93408 0.26004,2.81081 0.21969,4.80243 -0.0587,2.89724 -0.13832,5.79451 -0.31276,8.68751 -0.42749,6.23666 -1.12169,12.47175 -2.98876,18.46787 -0.886,2.31314 -1.74528,4.60724 -3.34597,6.5468 -3.68968,4.47077 -9.51328,6.65405 -14.78689,8.82451 -0.77494,0.20862 -1.53844,0.46564 -2.32482,0.62585 -4.81,0.97988 -9.77665,0.27511 -14.62627,0.13946 -8.35912,-0.68781 -16.72157,-1.77589 -24.74181,-4.33806 -4.2348,-1.53458 -10.02576,-3.3437 -11.95227,-7.96798 -0.22082,-0.53001 -0.27905,-1.11395 -0.41857,-1.67092 0.0499,-4.73699 0.23299,-9.47277 0.59067,-14.19707 0.73058,-8.40708 1.53654,-16.88623 3.8013,-25.04114 0.30696,-0.77724 1.9664,-5.40991 2.85841,-6.11045 0.12765,-0.10025 9.32023,-7.07095 13.48036,-8.0937 2.00956,-0.49404 3.8918,-0.33905 5.93816,-0.3225 7.33555,0.26841 14.68149,0.47143 21.9988,1.06752 0,0 -9.14275,6.37073 -9.14275,6.37073 z"
         id="path3572"
         style="opacity:1;fill:#d0359d;fill-opacity:1;stroke:#000000;stroke-width:4;stroke-linecap:round;stroke-linejoin:round;stroke-miterlimit:4;stroke-dasharray:none;stroke-dashoffset:0;stroke-opacity:1;paint-order:normal"
         transform="translate(-2.2678571,-14.363095)" />
      <path
         inkscape:connector-curvature="0"
         d="m 276.09658,258.86964 c -3.0837,0.12126 -6.09439,0.463 -9.0718,1.2831 -0.71411,0.27081 -1.44372,0.50387 -2.14236,0.81245 -0.84444,0.37297 -1.66367,0.80139 -2.48138,1.22979 -0.95036,0.4979 -3.74719,2.0912 -2.82169,1.54849 13.13373,-7.70156 3.01269,-1.51077 0.35439,0.24506 -2.99239,2.05099 -5.70895,4.43166 -7.23745,7.7915 -0.86424,1.89971 -1.00269,2.93101 -1.48193,4.95561 -0.50347,3.0796 -1.08813,6.47928 0.67277,9.30694 1.0443,1.67693 2.19681,2.38193 3.71896,3.61815 5.42354,3.74864 11.66576,5.83406 18.03298,7.29384 7.30361,1.40648 14.72049,2.0441 22.03643,3.38863 5.37218,1.25587 10.82085,2.5845 15.71594,5.21779 0.76623,0.4122 1.49087,0.89739 2.23631,1.3461 4.53411,3.39227 5.35876,6.88298 6.04935,12.24727 0.18288,6.90097 -3.89803,12.20848 -8.34017,17.03996 -0.87892,0.75234 -1.71273,1.56083 -2.63676,2.25703 -0.93323,0.70318 -1.90796,1.35652 -2.92436,1.93302 -6.77664,3.84376 -9.89383,6.30732 -16.24996,8.04434 -3.19919,0.87426 -6.03957,1.24671 -9.3204,1.78599 -7.01868,0.97631 -14.09741,1.35911 -21.16768,1.72746 0,0 8.30171,-6.09296 8.30171,-6.09296 v 0 c 7.04318,-0.31287 14.09639,-0.69151 21.06723,-1.81342 3.57336,-0.6657 5.94728,-0.99571 9.38813,-2.04965 1.29043,-0.39526 4.67498,-2.42094 3.80225,-1.39145 -1.45645,1.71813 -3.82511,2.38073 -5.69955,3.62959 -1.91106,1.27328 7.83871,-4.718 5.64997,-3.94177 4.36403,-4.50395 8.55943,-9.50923 8.58988,-16.1105 -0.65752,-4.97367 -1.37313,-8.24355 -5.5771,-11.40283 -5.45703,-3.31896 -11.2768,-5.10307 -17.51428,-6.3885 -7.36415,-1.30185 -14.82172,-1.94368 -22.16301,-3.36968 -6.49114,-1.57795 -12.80674,-3.8517 -18.36023,-7.65439 -1.72176,-1.3996 -2.89664,-2.10445 -4.0869,-4 -1.90318,-3.03093 -1.43929,-6.6022 -0.92342,-9.93913 1.33942,-6.5814 2.90492,-9.57607 8.509,-13.55492 6.0919,-4.03151 11.05576,-6.91102 17.84889,-10.79545 1.56175,-0.89303 3.85519,-2.08267 5.55643,-2.77404 0.74216,-0.3016 1.51503,-0.52127 2.27253,-0.7819 3.09092,-0.73773 6.2202,-0.96965 9.36673,-1.35471 0,0 -8.96945,6.71319 -8.96945,6.71319 z"
         id="path3574"
         style="opacity:1;fill:#d0359d;fill-opacity:1;stroke:#000000;stroke-width:4;stroke-linecap:round;stroke-linejoin:round;stroke-miterlimit:4;stroke-dasharray:none;stroke-dashoffset:0;stroke-opacity:1;paint-order:normal"
         transform="translate(-2.2678571,-14.363095)" />
      <path
         inkscape:connector-curvature="0"
         d="m 346.63092,219.30704 c -0.43267,9.61173 1.31601,19.19146 2.66647,28.67736 1.1883,8.21429 2.42702,16.42103 3.58693,24.63943 0.83902,5.58751 1.63079,11.17929 2.19898,16.80123 0.39372,4.01744 0.45683,8.05254 0.76062,12.07609 0.13105,2.94598 0.52316,5.86105 1.0056,8.76686 0.30758,1.74294 0.6917,3.46125 0.90025,5.22163 0.0293,0.31729 0.0585,0.63458 0.0878,0.95187 0,0 -9.88227,5.14035 -9.88227,5.14035 v 0 c -0.0235,-0.30843 -0.0469,-0.61685 -0.0704,-0.92528 -0.18833,-1.75733 -0.61164,-3.45818 -0.87022,-5.20017 -0.35766,-2.96479 -0.77634,-5.92143 -0.88794,-8.90982 -0.31615,-4.04026 -0.33285,-8.08894 -0.61725,-12.13178 -0.47188,-5.63713 -1.29982,-11.22907 -2.04639,-16.83478 -1.00584,-8.29187 -2.06388,-16.57812 -3.15603,-24.85896 -1.25378,-9.44746 -2.90862,-18.8669 -3.55706,-28.37945 0,0 9.88092,-5.03458 9.88092,-5.03458 z"
         id="path3576"
         style="opacity:1;fill:#d0359d;fill-opacity:1;stroke:#000000;stroke-width:4;stroke-linecap:round;stroke-linejoin:round;stroke-miterlimit:4;stroke-dasharray:none;stroke-dashoffset:0;stroke-opacity:1;paint-order:normal"
         transform="translate(-2.2678571,-14.363095)" />
      <path
         inkscape:connector-curvature="0"
         d="m 353.32964,360.1426 c 0.0749,-2.11576 0.046,-4.2337 0.0331,-6.35031 0.0145,-1.79679 -0.008,-3.59342 -0.0249,-5.39002 -0.0201,-1.11376 -0.018,-2.22789 -0.0183,-3.34179 -0.0254,-0.89191 -0.007,-1.78393 0.003,-2.67594 0.0145,-1.23431 0.0159,-2.4687 -0.003,-3.70295 -0.004,-0.5992 -0.005,-1.19841 -0.0122,-1.79758 0,0 10.02835,-5.10969 10.02835,-5.10969 v 0 c -0.007,0.60333 -0.008,1.20671 -0.0122,1.81007 -0.0177,1.23502 -0.0169,2.4702 -0.003,3.70528 0.01,0.89122 0.0275,1.78244 0.003,2.67359 0,1.12008 0.003,2.24041 -0.0183,3.36036 -0.0164,1.8051 -0.0394,3.61022 -0.0249,5.41547 -0.0127,2.10539 -0.0425,4.21214 0.0331,6.31663 0,0 -9.98357,5.08688 -9.98357,5.08688 z"
         id="path3578"
         style="opacity:1;fill:#d0359d;fill-opacity:1;stroke:#000000;stroke-width:4;stroke-linecap:round;stroke-linejoin:round;stroke-miterlimit:4;stroke-dasharray:none;stroke-dashoffset:0;stroke-opacity:1;paint-order:normal"
         transform="translate(-2.2678571,-14.363095)" />
    </g>
  </g>
</svg>
