<?xml version="1.0" encoding="UTF-8" standalone="no"?>
<!-- Created with Inkscape (http://www.inkscape.org/) -->

<svg
   xmlns:dc="http://purl.org/dc/elements/1.1/"
   xmlns:cc="http://creativecommons.org/ns#"
   xmlns:rdf="http://www.w3.org/1999/02/22-rdf-syntax-ns#"
   xmlns:svg="http://www.w3.org/2000/svg"
   xmlns="http://www.w3.org/2000/svg"
   xmlns:xlink="http://www.w3.org/1999/xlink"
   xmlns:sodipodi="http://sodipodi.sourceforge.net/DTD/sodipodi-0.dtd"
   xmlns:inkscape="http://www.inkscape.org/namespaces/inkscape"
   width="883.63593mm"
   height="386.22272mm"
   viewBox="0 0 883.63592 386.22271"
   version="1.1"
   id="svg8"
   inkscape:version="0.92.2 (5c3e80d, 2017-08-06)"
   sodipodi:docname="taco-alert.svg"
   inkscape:export-filename="/home/mike/Desktop/School/Cloud/Classes/CPSC 473 - Web FrontEnd Engineering (Mon)/homework/assignments/Project 2 - Celebrity Taco/program/celebrity-tacos/public/assets/images/taco-alert-2.png"
   inkscape:export-xdpi="41.763023"
   inkscape:export-ydpi="41.763023">
  <defs
     id="defs2">
    <linearGradient
       id="linearGradient5222"
       inkscape:collect="always">
      <stop
         id="stop5218"
         offset="0"
         style="stop-color:#ffef00;stop-opacity:1;" />
      <stop
         id="stop5220"
         offset="1"
         style="stop-color:#ff00d5;stop-opacity:0" />
    </linearGradient>
    <linearGradient
       inkscape:collect="always"
       id="linearGradient5187-7">
      <stop
         style="stop-color:#ffef00;stop-opacity:1;"
         offset="0"
         id="stop5183" />
      <stop
         style="stop-color:#ffef00;stop-opacity:0;"
         offset="1"
         id="stop5185" />
    </linearGradient>
    <marker
       inkscape:stockid="Arrow1Lstart"
       orient="auto"
       refY="0"
       refX="0"
       id="marker9758"
       style="overflow:visible"
       inkscape:isstock="true">
      <path
         id="path9756"
         d="M 0,0 5,-5 -12.5,0 5,5 Z"
         style="fill:#d0359d;fill-opacity:1;fill-rule:evenodd;stroke:#020100;stroke-width:1.00000003pt;stroke-opacity:1"
         transform="matrix(0.8,0,0,0.8,10,0)"
         inkscape:connector-curvature="0" />
    </marker>
    <marker
       inkscape:stockid="Arrow1Lstart"
       orient="auto"
       refY="0"
       refX="0"
       id="marker9502"
       style="overflow:visible"
       inkscape:isstock="true">
      <path
         id="path9500"
         d="M 0,0 5,-5 -12.5,0 5,5 Z"
         style="fill:#d0359d;fill-opacity:1;fill-rule:evenodd;stroke:#020100;stroke-width:1.00000003pt;stroke-opacity:1"
         transform="matrix(0.8,0,0,0.8,10,0)"
         inkscape:connector-curvature="0" />
    </marker>
    <marker
       inkscape:stockid="Arrow1Lstart"
       orient="auto"
       refY="0"
       refX="0"
       id="marker9252"
       style="overflow:visible"
       inkscape:isstock="true">
      <path
         id="path9250"
         d="M 0,0 5,-5 -12.5,0 5,5 Z"
         style="fill:#d0359d;fill-opacity:1;fill-rule:evenodd;stroke:#020100;stroke-width:1.00000003pt;stroke-opacity:1"
         transform="matrix(0.8,0,0,0.8,10,0)"
         inkscape:connector-curvature="0" />
    </marker>
    <marker
       inkscape:stockid="Arrow1Lstart"
       orient="auto"
       refY="0"
       refX="0"
       id="marker9008"
       style="overflow:visible"
       inkscape:isstock="true">
      <path
         id="path9006"
         d="M 0,0 5,-5 -12.5,0 5,5 Z"
         style="fill:#d0359d;fill-opacity:1;fill-rule:evenodd;stroke:#020100;stroke-width:1.00000003pt;stroke-opacity:1"
         transform="matrix(0.8,0,0,0.8,10,0)"
         inkscape:connector-curvature="0" />
    </marker>
    <marker
       inkscape:stockid="Arrow1Lstart"
       orient="auto"
       refY="0"
       refX="0"
       id="marker8770"
       style="overflow:visible"
       inkscape:isstock="true">
      <path
         id="path8768"
         d="M 0,0 5,-5 -12.5,0 5,5 Z"
         style="fill:#d0359d;fill-opacity:1;fill-rule:evenodd;stroke:#020100;stroke-width:1.00000003pt;stroke-opacity:1"
         transform="matrix(0.8,0,0,0.8,10,0)"
         inkscape:connector-curvature="0" />
    </marker>
    <marker
       inkscape:stockid="Arrow1Lstart"
       orient="auto"
       refY="0"
       refX="0"
       id="marker8538"
       style="overflow:visible"
       inkscape:isstock="true">
      <path
         id="path8536"
         d="M 0,0 5,-5 -12.5,0 5,5 Z"
         style="fill:#d0359d;fill-opacity:1;fill-rule:evenodd;stroke:#020100;stroke-width:1.00000003pt;stroke-opacity:1"
         transform="matrix(0.8,0,0,0.8,10,0)"
         inkscape:connector-curvature="0" />
    </marker>
    <marker
       inkscape:stockid="Arrow1Lstart"
       orient="auto"
       refY="0"
       refX="0"
       id="marker8312"
       style="overflow:visible"
       inkscape:isstock="true">
      <path
         id="path8310"
         d="M 0,0 5,-5 -12.5,0 5,5 Z"
         style="fill:#d0359d;fill-opacity:1;fill-rule:evenodd;stroke:#020100;stroke-width:1.00000003pt;stroke-opacity:1"
         transform="matrix(0.8,0,0,0.8,10,0)"
         inkscape:connector-curvature="0" />
    </marker>
    <marker
       inkscape:stockid="Arrow1Lstart"
       orient="auto"
       refY="0"
       refX="0"
       id="marker8092"
       style="overflow:visible"
       inkscape:isstock="true">
      <path
         id="path8090"
         d="M 0,0 5,-5 -12.5,0 5,5 Z"
         style="fill:#d0359d;fill-opacity:1;fill-rule:evenodd;stroke:#020100;stroke-width:1.00000003pt;stroke-opacity:1"
         transform="matrix(0.8,0,0,0.8,10,0)"
         inkscape:connector-curvature="0" />
    </marker>
    <marker
       inkscape:stockid="Arrow1Lstart"
       orient="auto"
       refY="0"
       refX="0"
       id="marker7878"
       style="overflow:visible"
       inkscape:isstock="true">
      <path
         id="path7876"
         d="M 0,0 5,-5 -12.5,0 5,5 Z"
         style="fill:#d0359d;fill-opacity:1;fill-rule:evenodd;stroke:#020100;stroke-width:1.00000003pt;stroke-opacity:1"
         transform="matrix(0.8,0,0,0.8,10,0)"
         inkscape:connector-curvature="0" />
    </marker>
    <marker
       inkscape:stockid="Arrow1Lstart"
       orient="auto"
       refY="0"
       refX="0"
       id="marker7670"
       style="overflow:visible"
       inkscape:isstock="true">
      <path
         id="path7668"
         d="M 0,0 5,-5 -12.5,0 5,5 Z"
         style="fill:#d0359d;fill-opacity:1;fill-rule:evenodd;stroke:#020100;stroke-width:1.00000003pt;stroke-opacity:1"
         transform="matrix(0.8,0,0,0.8,10,0)"
         inkscape:connector-curvature="0" />
    </marker>
    <marker
       inkscape:stockid="Arrow1Lstart"
       orient="auto"
       refY="0"
       refX="0"
       id="marker7468"
       style="overflow:visible"
       inkscape:isstock="true">
      <path
         id="path7466"
         d="M 0,0 5,-5 -12.5,0 5,5 Z"
         style="fill:#d0359d;fill-opacity:1;fill-rule:evenodd;stroke:#020100;stroke-width:1.00000003pt;stroke-opacity:1"
         transform="matrix(0.8,0,0,0.8,10,0)"
         inkscape:connector-curvature="0" />
    </marker>
    <marker
       inkscape:stockid="Arrow1Lstart"
       orient="auto"
       refY="0"
       refX="0"
       id="marker7272"
       style="overflow:visible"
       inkscape:isstock="true">
      <path
         id="path7270"
         d="M 0,0 5,-5 -12.5,0 5,5 Z"
         style="fill:#d0359d;fill-opacity:1;fill-rule:evenodd;stroke:#020100;stroke-width:1.00000003pt;stroke-opacity:1"
         transform="matrix(0.8,0,0,0.8,10,0)"
         inkscape:connector-curvature="0" />
    </marker>
    <marker
       inkscape:stockid="Arrow1Lstart"
       orient="auto"
       refY="0"
       refX="0"
       id="marker7082"
       style="overflow:visible"
       inkscape:isstock="true">
      <path
         id="path7080"
         d="M 0,0 5,-5 -12.5,0 5,5 Z"
         style="fill:#d0359d;fill-opacity:1;fill-rule:evenodd;stroke:#020100;stroke-width:1.00000003pt;stroke-opacity:1"
         transform="matrix(0.8,0,0,0.8,10,0)"
         inkscape:connector-curvature="0" />
    </marker>
    <marker
       inkscape:stockid="Arrow1Lstart"
       orient="auto"
       refY="0"
       refX="0"
       id="marker6898"
       style="overflow:visible"
       inkscape:isstock="true">
      <path
         id="path6896"
         d="M 0,0 5,-5 -12.5,0 5,5 Z"
         style="fill:#d0359d;fill-opacity:1;fill-rule:evenodd;stroke:#020100;stroke-width:1.00000003pt;stroke-opacity:1"
         transform="matrix(0.8,0,0,0.8,10,0)"
         inkscape:connector-curvature="0" />
    </marker>
    <marker
       inkscape:stockid="Arrow1Lstart"
       orient="auto"
       refY="0"
       refX="0"
       id="marker6720"
       style="overflow:visible"
       inkscape:isstock="true">
      <path
         id="path6718"
         d="M 0,0 5,-5 -12.5,0 5,5 Z"
         style="fill:#d0359d;fill-opacity:1;fill-rule:evenodd;stroke:#020100;stroke-width:1.00000003pt;stroke-opacity:1"
         transform="matrix(0.8,0,0,0.8,10,0)"
         inkscape:connector-curvature="0" />
    </marker>
    <marker
       inkscape:stockid="Arrow1Lstart"
       orient="auto"
       refY="0"
       refX="0"
       id="marker6548"
       style="overflow:visible"
       inkscape:isstock="true">
      <path
         id="path6546"
         d="M 0,0 5,-5 -12.5,0 5,5 Z"
         style="fill:#d0359d;fill-opacity:1;fill-rule:evenodd;stroke:#020100;stroke-width:1.00000003pt;stroke-opacity:1"
         transform="matrix(0.8,0,0,0.8,10,0)"
         inkscape:connector-curvature="0" />
    </marker>
    <marker
       inkscape:stockid="Arrow1Lstart"
       orient="auto"
       refY="0"
       refX="0"
       id="marker6382"
       style="overflow:visible"
       inkscape:isstock="true">
      <path
         id="path6380"
         d="M 0,0 5,-5 -12.5,0 5,5 Z"
         style="fill:#d0359d;fill-opacity:1;fill-rule:evenodd;stroke:#020100;stroke-width:1.00000003pt;stroke-opacity:1"
         transform="matrix(0.8,0,0,0.8,10,0)"
         inkscape:connector-curvature="0" />
    </marker>
    <marker
       inkscape:stockid="Arrow1Lstart"
       orient="auto"
       refY="0"
       refX="0"
       id="marker6222"
       style="overflow:visible"
       inkscape:isstock="true">
      <path
         id="path6220"
         d="M 0,0 5,-5 -12.5,0 5,5 Z"
         style="fill:#d0359d;fill-opacity:1;fill-rule:evenodd;stroke:#020100;stroke-width:1.00000003pt;stroke-opacity:1"
         transform="matrix(0.8,0,0,0.8,10,0)"
         inkscape:connector-curvature="0" />
    </marker>
    <marker
       inkscape:stockid="Arrow1Lstart"
       orient="auto"
       refY="0"
       refX="0"
       id="marker6068"
       style="overflow:visible"
       inkscape:isstock="true">
      <path
         id="path6066"
         d="M 0,0 5,-5 -12.5,0 5,5 Z"
         style="fill:#d0359d;fill-opacity:1;fill-rule:evenodd;stroke:#020100;stroke-width:1.00000003pt;stroke-opacity:1"
         transform="matrix(0.8,0,0,0.8,10,0)"
         inkscape:connector-curvature="0" />
    </marker>
    <marker
       inkscape:stockid="Arrow1Lstart"
       orient="auto"
       refY="0"
       refX="0"
       id="marker5920"
       style="overflow:visible"
       inkscape:isstock="true">
      <path
         id="path5918"
         d="M 0,0 5,-5 -12.5,0 5,5 Z"
         style="fill:#d0359d;fill-opacity:1;fill-rule:evenodd;stroke:#020100;stroke-width:1.00000003pt;stroke-opacity:1"
         transform="matrix(0.8,0,0,0.8,10,0)"
         inkscape:connector-curvature="0" />
    </marker>
    <marker
       inkscape:stockid="Arrow1Lstart"
       orient="auto"
       refY="0"
       refX="0"
       id="marker5778"
       style="overflow:visible"
       inkscape:isstock="true">
      <path
         id="path5776"
         d="M 0,0 5,-5 -12.5,0 5,5 Z"
         style="fill:#d0359d;fill-opacity:1;fill-rule:evenodd;stroke:#020100;stroke-width:1.00000003pt;stroke-opacity:1"
         transform="matrix(0.8,0,0,0.8,10,0)"
         inkscape:connector-curvature="0" />
    </marker>
    <marker
       inkscape:isstock="true"
       style="overflow:visible"
       id="marker5492"
       refX="0"
       refY="0"
       orient="auto"
       inkscape:stockid="Arrow1Lstart">
      <path
         transform="matrix(0.8,0,0,0.8,10,0)"
         style="fill:#d0359d;fill-opacity:1;fill-rule:evenodd;stroke:#020100;stroke-width:1.00000003pt;stroke-opacity:1"
         d="M 0,0 5,-5 -12.5,0 5,5 Z"
         id="path5490"
         inkscape:connector-curvature="0" />
    </marker>
    <marker
       inkscape:isstock="true"
       style="overflow:visible"
       id="marker5356"
       refX="0"
       refY="0"
       orient="auto"
       inkscape:stockid="Arrow1Lstart">
      <path
         transform="matrix(0.8,0,0,0.8,10,0)"
         style="fill:#d0359d;fill-opacity:1;fill-rule:evenodd;stroke:#020100;stroke-width:1.00000003pt;stroke-opacity:1"
         d="M 0,0 5,-5 -12.5,0 5,5 Z"
         id="path5354"
         inkscape:connector-curvature="0" />
    </marker>
    <marker
       inkscape:isstock="true"
       style="overflow:visible"
       id="marker5102"
       refX="0"
       refY="0"
       orient="auto"
       inkscape:stockid="Arrow1Lstart">
      <path
         transform="matrix(0.8,0,0,0.8,10,0)"
         style="fill:#d0359d;fill-opacity:1;fill-rule:evenodd;stroke:#020100;stroke-width:1.00000003pt;stroke-opacity:1"
         d="M 0,0 5,-5 -12.5,0 5,5 Z"
         id="path5100"
         inkscape:connector-curvature="0" />
    </marker>
    <marker
       inkscape:isstock="true"
       style="overflow:visible"
       id="marker4984"
       refX="0"
       refY="0"
       orient="auto"
       inkscape:stockid="Arrow1Lstart">
      <path
         transform="matrix(0.8,0,0,0.8,10,0)"
         style="fill:#d0359d;fill-opacity:1;fill-rule:evenodd;stroke:#020100;stroke-width:1.00000003pt;stroke-opacity:1"
         d="M 0,0 5,-5 -12.5,0 5,5 Z"
         id="path4982"
         inkscape:connector-curvature="0" />
    </marker>
    <marker
       inkscape:isstock="true"
       style="overflow:visible"
       id="marker4872"
       refX="0"
       refY="0"
       orient="auto"
       inkscape:stockid="Arrow1Lstart">
      <path
         transform="matrix(0.8,0,0,0.8,10,0)"
         style="fill:#d0359d;fill-opacity:1;fill-rule:evenodd;stroke:#020100;stroke-width:1.00000003pt;stroke-opacity:1"
         d="M 0,0 5,-5 -12.5,0 5,5 Z"
         id="path4870"
         inkscape:connector-curvature="0" />
    </marker>
    <marker
       inkscape:isstock="true"
       style="overflow:visible"
       id="marker4766"
       refX="0"
       refY="0"
       orient="auto"
       inkscape:stockid="Arrow1Lstart">
      <path
         transform="matrix(0.8,0,0,0.8,10,0)"
         style="fill:#d0359d;fill-opacity:1;fill-rule:evenodd;stroke:#020100;stroke-width:1.00000003pt;stroke-opacity:1"
         d="M 0,0 5,-5 -12.5,0 5,5 Z"
         id="path4764"
         inkscape:connector-curvature="0" />
    </marker>
    <marker
       inkscape:isstock="true"
       style="overflow:visible"
       id="marker4666"
       refX="0"
       refY="0"
       orient="auto"
       inkscape:stockid="Arrow1Lstart">
      <path
         transform="matrix(0.8,0,0,0.8,10,0)"
         style="fill:#d0359d;fill-opacity:1;fill-rule:evenodd;stroke:#020100;stroke-width:1.00000003pt;stroke-opacity:1"
         d="M 0,0 5,-5 -12.5,0 5,5 Z"
         id="path4664"
         inkscape:connector-curvature="0" />
    </marker>
    <marker
       inkscape:isstock="true"
       style="overflow:visible"
       id="marker4572"
       refX="0"
       refY="0"
       orient="auto"
       inkscape:stockid="Arrow1Lstart">
      <path
         transform="matrix(0.8,0,0,0.8,10,0)"
         style="fill:#d0359d;fill-opacity:1;fill-rule:evenodd;stroke:#020100;stroke-width:1.00000003pt;stroke-opacity:1"
         d="M 0,0 5,-5 -12.5,0 5,5 Z"
         id="path4570"
         inkscape:connector-curvature="0" />
    </marker>
    <marker
       inkscape:isstock="true"
       style="overflow:visible"
       id="marker4484"
       refX="0"
       refY="0"
       orient="auto"
       inkscape:stockid="Arrow1Lstart">
      <path
         transform="matrix(0.8,0,0,0.8,10,0)"
         style="fill:#d0359d;fill-opacity:1;fill-rule:evenodd;stroke:#020100;stroke-width:1.00000003pt;stroke-opacity:1"
         d="M 0,0 5,-5 -12.5,0 5,5 Z"
         id="path4482"
         inkscape:connector-curvature="0" />
    </marker>
    <marker
       inkscape:isstock="true"
       style="overflow:visible"
       id="marker4402"
       refX="0"
       refY="0"
       orient="auto"
       inkscape:stockid="Arrow1Lstart">
      <path
         transform="matrix(0.8,0,0,0.8,10,0)"
         style="fill:#d0359d;fill-opacity:1;fill-rule:evenodd;stroke:#020100;stroke-width:1.00000003pt;stroke-opacity:1"
         d="M 0,0 5,-5 -12.5,0 5,5 Z"
         id="path4400"
         inkscape:connector-curvature="0" />
    </marker>
    <marker
       inkscape:isstock="true"
       style="overflow:visible"
       id="marker4326"
       refX="0"
       refY="0"
       orient="auto"
       inkscape:stockid="Arrow1Lstart">
      <path
         transform="matrix(0.8,0,0,0.8,10,0)"
         style="fill:#d0359d;fill-opacity:1;fill-rule:evenodd;stroke:#020100;stroke-width:1.00000003pt;stroke-opacity:1"
         d="M 0,0 5,-5 -12.5,0 5,5 Z"
         id="path4324"
         inkscape:connector-curvature="0" />
    </marker>
    <marker
       inkscape:isstock="true"
       style="overflow:visible"
       id="marker4256"
       refX="0"
       refY="0"
       orient="auto"
       inkscape:stockid="Arrow1Lstart">
      <path
         transform="matrix(0.8,0,0,0.8,10,0)"
         style="fill:#d0359d;fill-opacity:1;fill-rule:evenodd;stroke:#020100;stroke-width:1.00000003pt;stroke-opacity:1"
         d="M 0,0 5,-5 -12.5,0 5,5 Z"
         id="path4254"
         inkscape:connector-curvature="0" />
    </marker>
    <marker
       inkscape:isstock="true"
       style="overflow:visible"
       id="marker4192"
       refX="0"
       refY="0"
       orient="auto"
       inkscape:stockid="Arrow1Lstart">
      <path
         transform="matrix(0.8,0,0,0.8,10,0)"
         style="fill:#d0359d;fill-opacity:1;fill-rule:evenodd;stroke:#020100;stroke-width:1.00000003pt;stroke-opacity:1"
         d="M 0,0 5,-5 -12.5,0 5,5 Z"
         id="path4190"
         inkscape:connector-curvature="0" />
    </marker>
    <marker
       inkscape:isstock="true"
       style="overflow:visible"
       id="marker4134"
       refX="0"
       refY="0"
       orient="auto"
       inkscape:stockid="Arrow1Lstart">
      <path
         transform="matrix(0.8,0,0,0.8,10,0)"
         style="fill:#d0359d;fill-opacity:1;fill-rule:evenodd;stroke:#020100;stroke-width:1.00000003pt;stroke-opacity:1"
         d="M 0,0 5,-5 -12.5,0 5,5 Z"
         id="path4132"
         inkscape:connector-curvature="0" />
    </marker>
    <marker
       inkscape:isstock="true"
       style="overflow:visible"
       id="marker4082"
       refX="0"
       refY="0"
       orient="auto"
       inkscape:stockid="Arrow1Lstart">
      <path
         transform="matrix(0.8,0,0,0.8,10,0)"
         style="fill:#d0359d;fill-opacity:1;fill-rule:evenodd;stroke:#020100;stroke-width:1.00000003pt;stroke-opacity:1"
         d="M 0,0 5,-5 -12.5,0 5,5 Z"
         id="path4080"
         inkscape:connector-curvature="0" />
    </marker>
    <marker
       inkscape:isstock="true"
       style="overflow:visible"
       id="marker4036"
       refX="0"
       refY="0"
       orient="auto"
       inkscape:stockid="Arrow1Lstart">
      <path
         transform="matrix(0.8,0,0,0.8,10,0)"
         style="fill:#d0359d;fill-opacity:1;fill-rule:evenodd;stroke:#020100;stroke-width:1.00000003pt;stroke-opacity:1"
         d="M 0,0 5,-5 -12.5,0 5,5 Z"
         id="path4034"
         inkscape:connector-curvature="0" />
    </marker>
    <marker
       inkscape:isstock="true"
       style="overflow:visible"
       id="marker3996"
       refX="0"
       refY="0"
       orient="auto"
       inkscape:stockid="Arrow1Lstart">
      <path
         transform="matrix(0.8,0,0,0.8,10,0)"
         style="fill:#d0359d;fill-opacity:1;fill-rule:evenodd;stroke:#020100;stroke-width:1.00000003pt;stroke-opacity:1"
         d="M 0,0 5,-5 -12.5,0 5,5 Z"
         id="path3994"
         inkscape:connector-curvature="0" />
    </marker>
    <marker
       inkscape:isstock="true"
       style="overflow:visible"
       id="marker3962"
       refX="0"
       refY="0"
       orient="auto"
       inkscape:stockid="Arrow1Lstart">
      <path
         transform="matrix(0.8,0,0,0.8,10,0)"
         style="fill:#d0359d;fill-opacity:1;fill-rule:evenodd;stroke:#020100;stroke-width:1.00000003pt;stroke-opacity:1"
         d="M 0,0 5,-5 -12.5,0 5,5 Z"
         id="path3960"
         inkscape:connector-curvature="0" />
    </marker>
    <marker
       inkscape:isstock="true"
       style="overflow:visible"
       id="marker3934"
       refX="0"
       refY="0"
       orient="auto"
       inkscape:stockid="Arrow1Lstart">
      <path
         transform="matrix(0.8,0,0,0.8,10,0)"
         style="fill:#d0359d;fill-opacity:1;fill-rule:evenodd;stroke:#020100;stroke-width:1.00000003pt;stroke-opacity:1"
         d="M 0,0 5,-5 -12.5,0 5,5 Z"
         id="path3932"
         inkscape:connector-curvature="0" />
    </marker>
    <marker
       inkscape:isstock="true"
       style="overflow:visible"
       id="marker3912"
       refX="0"
       refY="0"
       orient="auto"
       inkscape:stockid="Arrow1Lstart">
      <path
         transform="matrix(0.8,0,0,0.8,10,0)"
         style="fill:#d0359d;fill-opacity:1;fill-rule:evenodd;stroke:#020100;stroke-width:1.00000003pt;stroke-opacity:1"
         d="M 0,0 5,-5 -12.5,0 5,5 Z"
         id="path3910"
         inkscape:connector-curvature="0" />
    </marker>
    <linearGradient
       inkscape:collect="always"
       xlink:href="#linearGradient5187-7"
       id="linearGradient5181"
       x1="211.66667"
       y1="224.27127"
       x2="224.89584"
       y2="409.47961"
       gradientUnits="userSpaceOnUse" />
    <radialGradient
       inkscape:collect="always"
       xlink:href="#linearGradient5222"
       id="radialGradient5211"
       gradientUnits="userSpaceOnUse"
       gradientTransform="matrix(0.47173893,0.00368957,-0.00467612,0.59787723,147.20497,89.136225)"
       cx="138.87897"
       cy="225.16771"
       fx="138.87897"
       fy="225.16771"
       r="243.28125" />
  </defs>
  <sodipodi:namedview
     id="base"
     pagecolor="#ffffff"
     bordercolor="#666666"
     borderopacity="1.0"
     inkscape:pageopacity="0.0"
     inkscape:pageshadow="2"
     inkscape:zoom="0.24748737"
     inkscape:cx="1626.2224"
     inkscape:cy="637.01122"
     inkscape:document-units="mm"
     inkscape:current-layer="layer3"
     showgrid="true"
     inkscape:window-width="1600"
     inkscape:window-height="794"
     inkscape:window-x="1280"
     inkscape:window-y="160"
     inkscape:window-maximized="1"
     fit-margin-top="0"
     fit-margin-left="0"
     fit-margin-right="0"
     fit-margin-bottom="0"
     objecttolerance="20"
     inkscape:snap-perpendicular="false"
     inkscape:snap-tangential="false"
     showguides="false">
    <inkscape:grid
       type="xygrid"
       id="grid1461"
       spacingx="1.3229167"
       spacingy="1.3229167"
       originx="163.33661"
       originy="8.5008919" />
  </sodipodi:namedview>
  <metadata
     id="metadata5">
    <rdf:RDF>
      <cc:Work
         rdf:about="">
        <dc:format>image/svg+xml</dc:format>
        <dc:type
           rdf:resource="http://purl.org/dc/dcmitype/StillImage" />
        <dc:title></dc:title>
      </cc:Work>
    </rdf:RDF>
  </metadata>
  <g
     inkscape:groupmode="layer"
     id="layer3"
     inkscape:label="background"
     style="display:inline"
     transform="translate(163.33661,-31.757789)">
    <ellipse
       style="fill:url(#linearGradient5181);fill-opacity:1;stroke:url(#radialGradient5211);stroke-width:50;stroke-miterlimit:4;stroke-dasharray:none;stroke-opacity:1"
       id="path5163"
       cx="276.6749"
       cy="224.20276"
       rx="218.28125"
       ry="165.36458" />
  </g>
  <g
     inkscape:groupmode="layer"
     id="layer2"
     inkscape:label="Words - Small"
     style="display:none;opacity:0.95"
     transform="translate(163.33661,-31.757789)">
    <text
       xml:space="preserve"
       style="font-style:normal;font-weight:normal;font-size:7.93749952px;line-height:1.25;font-family:sans-serif;letter-spacing:0px;word-spacing:0px;display:inline;fill:#ff0000;fill-opacity:1;stroke:#000000;stroke-width:2.25;stroke-miterlimit:4;stroke-dasharray:none;stroke-opacity:1"
       x="87.04538"
       y="131.97171"
       id="text1438"><tspan
         sodipodi:role="line"
         id="tspan1436"
         x="87.04538"
         y="131.97171"
         style="font-style:normal;font-variant:normal;font-weight:bold;font-stretch:normal;font-size:52.91666794px;font-family:sans-serif;-inkscape-font-specification:'sans-serif Bold';fill:#ff0000;fill-opacity:1;stroke:#000000;stroke-width:2.25;stroke-miterlimit:4;stroke-dasharray:none;stroke-opacity:1">TACO ALERT</tspan></text>
    <text
       xml:space="preserve"
       style="font-style:normal;font-weight:normal;font-size:7.93749952px;line-height:1.25;font-family:sans-serif;letter-spacing:0px;word-spacing:0px;display:inline;fill:#ff0000;fill-opacity:1;stroke:#000000;stroke-width:2.25;stroke-miterlimit:4;stroke-dasharray:none;stroke-opacity:1"
       x="84.934288"
       y="384.0874"
       id="text1438-3"><tspan
         sodipodi:role="line"
         id="tspan1436-6"
         x="84.934288"
         y="384.0874"
         style="font-style:normal;font-variant:normal;font-weight:bold;font-stretch:normal;font-size:52.91666794px;font-family:sans-serif;-inkscape-font-specification:'sans-serif Bold';fill:#ff0000;fill-opacity:1;stroke:#000000;stroke-width:2.25;stroke-miterlimit:4;stroke-dasharray:none;stroke-opacity:1">TACO ALERT</tspan></text>
  </g>
  <g
     inkscape:label="Shell"
     inkscape:groupmode="layer"
     id="layer1"
     style="display:inline"
     transform="translate(310.91774,29.942322)">
    <g
       id="g3070"
       transform="matrix(1.1592629,0,0,1.1592629,39.529845,-5.6697476)">
      <g
         id="g3534"
         transform="rotate(-19.770485,76.540847,139.50712)">
        <path
           style="fill:#2dd843;fill-opacity:1;fill-rule:evenodd;stroke:#000000;stroke-width:1;stroke-linecap:butt;stroke-linejoin:miter;stroke-miterlimit:4;stroke-dasharray:none;stroke-opacity:1"
           d="m -87.71159,170.00827 c 27.21429,-43.84524 23.43453,-19.65476 23.43453,-19.65476 22.652905,-62.592264 51.124758,-85.151875 67.2797584,-50.648813 0,0 24.9464266,-51.404761 38.5535696,-10.583337 62.744052,-48.380948 46.113095,9.82739 46.113095,9.82739 2.267857,-40.065479 51.404757,6.04761 51.404757,6.04761 0.75595,-15.874997 26.45834,-22.67857 22.67858,10.58334 9.32341,-2.77183 33.06993,-13.07126 34.7738,12.09524 15.88352,-26.39989 43.90448,3.16665 27.21429,27.21428 0,0 37.04167,28.72619 8.31548,28.72619 v 0 c 8.31548,15.875 -322.778561,9.05273 -322.778561,9.05273 -15.877109,6.80146 -11.563789,-37.23436 3.010701,-22.65987 z"
           id="path3055"
           inkscape:connector-curvature="0"
           sodipodi:nodetypes="ccccccccccccc" />
        <g
           id="g3528">
          <path
             sodipodi:nodetypes="cc"
             inkscape:connector-curvature="0"
             id="path815"
             d="m -90.722291,192.66814 c 133.154112,-239.191587 338.641231,-9.39335 341.677371,0.0187 -344.693175,1.50366 -341.677371,-0.0187 -341.677371,-0.0187 z"
             style="fill:#d8b22d;fill-opacity:1;fill-rule:evenodd;stroke:#000000;stroke-width:5;stroke-linecap:butt;stroke-linejoin:miter;stroke-miterlimit:4;stroke-dasharray:none;stroke-opacity:1" />
          <path
             style="fill:none;fill-rule:evenodd;stroke:#020100;stroke-width:5;stroke-linecap:butt;stroke-linejoin:miter;stroke-miterlimit:4;stroke-dasharray:none;stroke-opacity:1"
             d="m -43.845236,179.07143 c 27.214284,-31.75 27.970236,-68.03572 43.08928373,-34.01786 15.11904727,34.01786 30.23809427,61.98809 31.75000027,25.70238 1.511903,-36.28571 -15.875,-99.02976 0.755951,-54.42857 16.630952,44.60119 5.291667,131.53571 23.434524,68.79167 C 73.32738,122.375 43.845238,73.994047 73.32738,120.10714 c 29.48214,46.1131 34.03897,120.94412 49.89286,52.91667 15.85388,-68.02745 5.29166,-105.833335 22.67857,-52.16072 17.3869,53.67262 24.19047,99.78572 30.99404,60.47619 6.80358,-39.30952 8.33659,-38.56184 31.75,-18.14285 23.41342,20.41898 31.7289,49.14517 23.41342,20.41898"
             id="path3072"
             inkscape:connector-curvature="0" />
        </g>
      </g>
    </g>
  </g>
  <g
     inkscape:label="Words - Large"
     id="g5160"
     inkscape:groupmode="layer"
     style="display:inline"
     transform="translate(163.33661,-31.757789)">
    <text
       id="text5154"
       y="99.089607"
       x="-172.77888"
       style="font-style:normal;font-weight:normal;font-size:13.22916603px;line-height:1.25;font-family:sans-serif;letter-spacing:0px;word-spacing:0px;display:inline;fill:#ff0000;fill-opacity:1;stroke:#000000;stroke-width:3.75;stroke-miterlimit:4;stroke-dasharray:none;stroke-opacity:1"
       xml:space="preserve"><tspan
         style="font-style:normal;font-variant:normal;font-weight:bold;font-stretch:normal;font-size:88.19445038px;font-family:sans-serif;-inkscape-font-specification:'sans-serif Bold';fill:#ff0000;fill-opacity:1;stroke:#000000;stroke-width:3.75;stroke-miterlimit:4;stroke-dasharray:none;stroke-opacity:1"
         y="99.089607"
         x="-172.77888"
         id="tspan5152"
         sodipodi:role="line">!!! TACO ALERT !!!</tspan></text>
    <text
       id="text5158"
       y="414.85666"
       x="-173.82089"
       style="font-style:normal;font-weight:normal;font-size:13.22916603px;line-height:1.25;font-family:sans-serif;letter-spacing:0px;word-spacing:0px;display:inline;fill:#ff0000;fill-opacity:1;stroke:#000000;stroke-width:3.75;stroke-miterlimit:4;stroke-dasharray:none;stroke-opacity:1"
       xml:space="preserve"><tspan
         style="font-style:normal;font-variant:normal;font-weight:bold;font-stretch:normal;font-size:88.19445038px;font-family:sans-serif;-inkscape-font-specification:'sans-serif Bold';fill:#ff0000;fill-opacity:1;stroke:#000000;stroke-width:3.75;stroke-miterlimit:4;stroke-dasharray:none;stroke-opacity:1"
         y="414.85666"
         x="-173.82089"
         id="tspan5156"
         sodipodi:role="line">!!! TACO ALERT !!!</tspan></text>
  </g>
</svg>
